<svg xmlns="http://www.w3.org/2000/svg" version="1.1" xmlns:xlink="http://www.w3.org/1999/xlink" xmlns:svgjs="http://svgjs.dev/svgjs" width="1500" height="1500" preserveAspectRatio="none" viewBox="0 0 1500 1500"><g mask="url(&quot;#SvgjsMask1026&quot;)" fill="none"><rect width="1500" height="1500" x="0" y="0" fill="rgba(26, 18, 39, 1)"></rect><path d="M0 -50L43.3 -25L43.3 25L0 50L-43.3 25L-43.3 -25zM43.3 25L86.61 50L86.61 100L43.3 125L0 100L0 50zM0 100L43.3 125L43.3 175L0 200L-43.3 175L-43.3 125zM43.3 175L86.61 200L86.61 250L43.3 275L0 250L0 200zM0 250L43.3 275L43.3 325L0 350L-43.3 325L-43.3 275zM43.3 325L86.61 350L86.61 400L43.3 425L0 400L0 350zM0 400L43.3 425L43.3 475L0 500L-43.3 475L-43.3 425zM43.3 475L86.61 500L86.61 550L43.3 575L0 550L0 500zM0 550L43.3 575L43.3 625L0 650L-43.3 625L-43.3 575zM43.3 625L86.61 650L86.61 700L43.3 725L0 700L0 650zM0 700L43.3 725L43.3 775L0 800L-43.3 775L-43.3 725zM43.3 775L86.61 800L86.61 850L43.3 875L0 850L0 800zM0 850L43.3 875L43.3 925L0 950L-43.3 925L-43.3 875zM43.3 925L86.61 950L86.61 1000L43.3 1025L0 1000L0 950zM0 1000L43.3 1025L43.3 1075L0 1100L-43.3 1075L-43.3 1025zM43.3 1075L86.61 1100L86.61 1150L43.3 1175L0 1150L0 1100zM0 1150L43.3 1175L43.3 1225L0 1250L-43.3 1225L-43.3 1175zM43.3 1225L86.61 1250L86.61 1300L43.3 1325L0 1300L0 1250zM0 1300L43.3 1325L43.3 1375L0 1400L-43.3 1375L-43.3 1325zM43.3 1375L86.61 1400L86.61 1450L43.3 1475L0 1450L0 1400zM0 1450L43.3 1475L43.3 1525L0 1550L-43.3 1525L-43.3 1475zM86.61 -50L129.91 -25L129.91 25L86.61 50L43.3 25L43.3 -25zM129.91 25L173.21 50L173.21 100L129.91 125L86.61 100L86.61 50zM86.61 100L129.91 125L129.91 175L86.61 200L43.3 175L43.3 125zM129.91 175L173.21 200L173.21 250L129.91 275L86.61 250L86.61 200zM86.61 250L129.91 275L129.91 325L86.61 350L43.3 325L43.3 275zM129.91 325L173.21 350L173.21 400L129.91 425L86.61 400L86.61 350zM86.61 400L129.91 425L129.91 475L86.61 500L43.3 475L43.3 425zM129.91 475L173.21 500L173.21 550L129.91 575L86.61 550L86.61 500zM86.61 550L129.91 575L129.91 625L86.61 650L43.3 625L43.3 575zM129.91 625L173.21 650L173.21 700L129.91 725L86.61 700L86.61 650zM86.61 700L129.91 725L129.91 775L86.61 800L43.3 775L43.3 725zM129.91 775L173.21 800L173.21 850L129.91 875L86.61 850L86.61 800zM86.61 850L129.91 875L129.91 925L86.61 950L43.3 925L43.3 875zM129.91 925L173.21 950L173.21 1000L129.91 1025L86.61 1000L86.61 950zM86.61 1000L129.91 1025L129.91 1075L86.61 1100L43.3 1075L43.3 1025zM129.91 1075L173.21 1100L173.21 1150L129.91 1175L86.61 1150L86.61 1100zM86.61 1150L129.91 1175L129.91 1225L86.61 1250L43.3 1225L43.3 1175zM129.91 1225L173.21 1250L173.21 1300L129.91 1325L86.61 1300L86.61 1250zM86.61 1300L129.91 1325L129.91 1375L86.61 1400L43.3 1375L43.3 1325zM129.91 1375L173.21 1400L173.21 1450L129.91 1475L86.61 1450L86.61 1400zM86.61 1450L129.91 1475L129.91 1525L86.61 1550L43.3 1525L43.3 1475zM173.21 -50L216.51 -25L216.51 25L173.21 50L129.91 25L129.91 -25zM216.51 25L259.81 50L259.81 100L216.51 125L173.21 100L173.21 50zM173.21 100L216.51 125L216.51 175L173.21 200L129.91 175L129.91 125zM216.51 175L259.81 200L259.81 250L216.51 275L173.21 250L173.21 200zM173.21 250L216.51 275L216.51 325L173.21 350L129.91 325L129.91 275zM216.51 325L259.81 350L259.81 400L216.51 425L173.21 400L173.21 350zM173.21 400L216.51 425L216.51 475L173.21 500L129.91 475L129.91 425zM216.51 475L259.81 500L259.81 550L216.51 575L173.21 550L173.21 500zM173.21 550L216.51 575L216.51 625L173.21 650L129.91 625L129.91 575zM216.51 625L259.81 650L259.81 700L216.51 725L173.21 700L173.21 650zM173.21 700L216.51 725L216.51 775L173.21 800L129.91 775L129.91 725zM216.51 775L259.81 800L259.81 850L216.51 875L173.21 850L173.21 800zM173.21 850L216.51 875L216.51 925L173.21 950L129.91 925L129.91 875zM216.51 925L259.81 950L259.81 1000L216.51 1025L173.21 1000L173.21 950zM173.21 1000L216.51 1025L216.51 1075L173.21 1100L129.91 1075L129.91 1025zM216.51 1075L259.81 1100L259.81 1150L216.51 1175L173.21 1150L173.21 1100zM173.21 1150L216.51 1175L216.51 1225L173.21 1250L129.91 1225L129.91 1175zM216.51 1225L259.81 1250L259.81 1300L216.51 1325L173.21 1300L173.21 1250zM173.21 1300L216.51 1325L216.51 1375L173.21 1400L129.91 1375L129.91 1325zM216.51 1375L259.81 1400L259.81 1450L216.51 1475L173.21 1450L173.21 1400zM173.21 1450L216.51 1475L216.51 1525L173.21 1550L129.91 1525L129.91 1475zM259.81 -50L303.12 -25L303.12 25L259.81 50L216.51 25L216.51 -25zM303.12 25L346.42 50L346.42 100L303.12 125L259.81 100L259.81 50zM259.81 100L303.12 125L303.12 175L259.81 200L216.51 175L216.51 125zM303.12 175L346.42 200L346.42 250L303.12 275L259.81 250L259.81 200zM259.81 250L303.12 275L303.12 325L259.81 350L216.51 325L216.51 275zM303.12 325L346.42 350L346.42 400L303.12 425L259.81 400L259.81 350zM259.81 400L303.12 425L303.12 475L259.81 500L216.51 475L216.51 425zM303.12 475L346.42 500L346.42 550L303.12 575L259.81 550L259.81 500zM259.81 550L303.12 575L303.12 625L259.81 650L216.51 625L216.51 575zM303.12 625L346.42 650L346.42 700L303.12 725L259.81 700L259.81 650zM259.81 700L303.12 725L303.12 775L259.81 800L216.51 775L216.51 725zM303.12 775L346.42 800L346.42 850L303.12 875L259.81 850L259.81 800zM259.81 850L303.12 875L303.12 925L259.81 950L216.51 925L216.51 875zM303.12 925L346.42 950L346.42 1000L303.12 1025L259.81 1000L259.81 950zM259.81 1000L303.12 1025L303.12 1075L259.81 1100L216.51 1075L216.51 1025zM303.12 1075L346.42 1100L346.42 1150L303.12 1175L259.81 1150L259.81 1100zM259.81 1150L303.12 1175L303.12 1225L259.81 1250L216.51 1225L216.51 1175zM303.12 1225L346.42 1250L346.42 1300L303.12 1325L259.81 1300L259.81 1250zM259.81 1300L303.12 1325L303.12 1375L259.81 1400L216.51 1375L216.51 1325zM303.12 1375L346.42 1400L346.42 1450L303.12 1475L259.81 1450L259.81 1400zM259.81 1450L303.12 1475L303.12 1525L259.81 1550L216.51 1525L216.51 1475zM346.42 -50L389.72 -25L389.72 25L346.42 50L303.12 25L303.12 -25zM389.72 25L433.03 50L433.03 100L389.72 125L346.42 100L346.42 50zM346.42 100L389.72 125L389.72 175L346.42 200L303.12 175L303.12 125zM389.72 175L433.03 200L433.03 250L389.72 275L346.42 250L346.42 200zM346.42 250L389.72 275L389.72 325L346.42 350L303.12 325L303.12 275zM389.72 325L433.03 350L433.03 400L389.72 425L346.42 400L346.42 350zM346.42 400L389.72 425L389.72 475L346.42 500L303.12 475L303.12 425zM389.72 475L433.03 500L433.03 550L389.72 575L346.42 550L346.42 500zM346.42 550L389.72 575L389.72 625L346.42 650L303.12 625L303.12 575zM389.72 625L433.03 650L433.03 700L389.72 725L346.42 700L346.42 650zM346.42 700L389.72 725L389.72 775L346.42 800L303.12 775L303.12 725zM389.72 775L433.03 800L433.03 850L389.72 875L346.42 850L346.42 800zM346.42 850L389.72 875L389.72 925L346.42 950L303.12 925L303.12 875zM389.72 925L433.03 950L433.03 1000L389.72 1025L346.42 1000L346.42 950zM346.42 1000L389.72 1025L389.72 1075L346.42 1100L303.12 1075L303.12 1025zM389.72 1075L433.03 1100L433.03 1150L389.72 1175L346.42 1150L346.42 1100zM346.42 1150L389.72 1175L389.72 1225L346.42 1250L303.12 1225L303.12 1175zM389.72 1225L433.03 1250L433.03 1300L389.72 1325L346.42 1300L346.42 1250zM346.42 1300L389.72 1325L389.72 1375L346.42 1400L303.12 1375L303.12 1325zM389.72 1375L433.03 1400L433.03 1450L389.72 1475L346.42 1450L346.42 1400zM346.42 1450L389.72 1475L389.72 1525L346.42 1550L303.12 1525L303.12 1475zM433.03 -50L476.33 -25L476.33 25L433.03 50L389.72 25L389.72 -25zM476.33 25L519.63 50L519.63 100L476.33 125L433.03 100L433.03 50zM433.03 100L476.33 125L476.33 175L433.03 200L389.72 175L389.72 125zM476.33 175L519.63 200L519.63 250L476.33 275L433.03 250L433.03 200zM433.03 250L476.33 275L476.33 325L433.03 350L389.72 325L389.72 275zM476.33 325L519.63 350L519.63 400L476.33 425L433.03 400L433.03 350zM433.03 400L476.33 425L476.33 475L433.03 500L389.72 475L389.72 425zM476.33 475L519.63 500L519.63 550L476.33 575L433.03 550L433.03 500zM433.03 550L476.33 575L476.33 625L433.03 650L389.72 625L389.72 575zM476.33 625L519.63 650L519.63 700L476.33 725L433.03 700L433.03 650zM433.03 700L476.33 725L476.33 775L433.03 800L389.72 775L389.72 725zM476.33 775L519.63 800L519.63 850L476.33 875L433.03 850L433.03 800zM433.03 850L476.33 875L476.33 925L433.03 950L389.72 925L389.72 875zM476.33 925L519.63 950L519.63 1000L476.33 1025L433.03 1000L433.03 950zM433.03 1000L476.33 1025L476.33 1075L433.03 1100L389.72 1075L389.72 1025zM476.33 1075L519.63 1100L519.63 1150L476.33 1175L433.03 1150L433.03 1100zM433.03 1150L476.33 1175L476.33 1225L433.03 1250L389.72 1225L389.72 1175zM476.33 1225L519.63 1250L519.63 1300L476.33 1325L433.03 1300L433.03 1250zM433.03 1300L476.33 1325L476.33 1375L433.03 1400L389.72 1375L389.72 1325zM476.33 1375L519.63 1400L519.63 1450L476.33 1475L433.03 1450L433.03 1400zM433.03 1450L476.33 1475L476.33 1525L433.03 1550L389.72 1525L389.72 1475zM519.63 -50L562.93 -25L562.93 25L519.63 50L476.33 25L476.33 -25zM562.93 25L606.24 50L606.24 100L562.93 125L519.63 100L519.63 50zM519.63 100L562.93 125L562.93 175L519.63 200L476.33 175L476.33 125zM562.93 175L606.24 200L606.24 250L562.93 275L519.63 250L519.63 200zM519.63 250L562.93 275L562.93 325L519.63 350L476.33 325L476.33 275zM562.93 325L606.24 350L606.24 400L562.93 425L519.63 400L519.63 350zM519.63 400L562.93 425L562.93 475L519.63 500L476.33 475L476.33 425zM562.93 475L606.24 500L606.24 550L562.93 575L519.63 550L519.63 500zM519.63 550L562.93 575L562.93 625L519.63 650L476.33 625L476.33 575zM562.93 625L606.24 650L606.24 700L562.93 725L519.63 700L519.63 650zM519.63 700L562.93 725L562.93 775L519.63 800L476.33 775L476.33 725zM562.93 775L606.24 800L606.24 850L562.93 875L519.63 850L519.63 800zM519.63 850L562.93 875L562.93 925L519.63 950L476.33 925L476.33 875zM562.93 925L606.24 950L606.24 1000L562.93 1025L519.63 1000L519.63 950zM519.63 1000L562.93 1025L562.93 1075L519.63 1100L476.33 1075L476.33 1025zM562.93 1075L606.24 1100L606.24 1150L562.93 1175L519.63 1150L519.63 1100zM519.63 1150L562.93 1175L562.93 1225L519.63 1250L476.33 1225L476.33 1175zM562.93 1225L606.24 1250L606.24 1300L562.93 1325L519.63 1300L519.63 1250zM519.63 1300L562.93 1325L562.93 1375L519.63 1400L476.33 1375L476.33 1325zM562.93 1375L606.24 1400L606.24 1450L562.93 1475L519.63 1450L519.63 1400zM519.63 1450L562.93 1475L562.93 1525L519.63 1550L476.33 1525L476.33 1475zM606.24 -50L649.54 -25L649.54 25L606.24 50L562.93 25L562.93 -25zM649.54 25L692.84 50L692.84 100L649.54 125L606.24 100L606.24 50zM606.24 100L649.54 125L649.54 175L606.24 200L562.93 175L562.93 125zM649.54 175L692.84 200L692.84 250L649.54 275L606.24 250L606.24 200zM606.24 250L649.54 275L649.54 325L606.24 350L562.93 325L562.93 275zM649.54 325L692.84 350L692.84 400L649.54 425L606.24 400L606.24 350zM606.24 400L649.54 425L649.54 475L606.24 500L562.93 475L562.93 425zM649.54 475L692.84 500L692.84 550L649.54 575L606.24 550L606.24 500zM606.24 550L649.54 575L649.54 625L606.24 650L562.93 625L562.93 575zM649.54 625L692.84 650L692.84 700L649.54 725L606.24 700L606.24 650zM606.24 700L649.54 725L649.54 775L606.24 800L562.93 775L562.93 725zM649.54 775L692.84 800L692.84 850L649.54 875L606.24 850L606.24 800zM606.24 850L649.54 875L649.54 925L606.24 950L562.93 925L562.93 875zM649.54 925L692.84 950L692.84 1000L649.54 1025L606.24 1000L606.24 950zM606.24 1000L649.54 1025L649.54 1075L606.24 1100L562.93 1075L562.93 1025zM649.54 1075L692.84 1100L692.84 1150L649.54 1175L606.24 1150L606.24 1100zM606.24 1150L649.54 1175L649.54 1225L606.24 1250L562.93 1225L562.93 1175zM649.54 1225L692.84 1250L692.84 1300L649.54 1325L606.24 1300L606.24 1250zM606.24 1300L649.54 1325L649.54 1375L606.24 1400L562.93 1375L562.93 1325zM649.54 1375L692.84 1400L692.84 1450L649.54 1475L606.24 1450L606.24 1400zM606.24 1450L649.54 1475L649.54 1525L606.24 1550L562.93 1525L562.93 1475zM692.84 -50L736.14 -25L736.14 25L692.84 50L649.54 25L649.54 -25zM736.14 25L779.45 50L779.45 100L736.14 125L692.84 100L692.84 50zM692.84 100L736.14 125L736.14 175L692.84 200L649.54 175L649.54 125zM736.14 175L779.45 200L779.45 250L736.14 275L692.84 250L692.84 200zM692.84 250L736.14 275L736.14 325L692.84 350L649.54 325L649.54 275zM736.14 325L779.45 350L779.45 400L736.14 425L692.84 400L692.84 350zM692.84 400L736.14 425L736.14 475L692.84 500L649.54 475L649.54 425zM736.14 475L779.45 500L779.45 550L736.14 575L692.84 550L692.84 500zM692.84 550L736.14 575L736.14 625L692.84 650L649.54 625L649.54 575zM736.14 625L779.45 650L779.45 700L736.14 725L692.84 700L692.84 650zM692.84 700L736.14 725L736.14 775L692.84 800L649.54 775L649.54 725zM736.14 775L779.45 800L779.45 850L736.14 875L692.84 850L692.84 800zM692.84 850L736.14 875L736.14 925L692.84 950L649.54 925L649.54 875zM736.14 925L779.45 950L779.45 1000L736.14 1025L692.84 1000L692.84 950zM692.84 1000L736.14 1025L736.14 1075L692.84 1100L649.54 1075L649.54 1025zM736.14 1075L779.45 1100L779.45 1150L736.14 1175L692.84 1150L692.84 1100zM692.84 1150L736.14 1175L736.14 1225L692.84 1250L649.54 1225L649.54 1175zM736.14 1225L779.45 1250L779.45 1300L736.14 1325L692.84 1300L692.84 1250zM692.84 1300L736.14 1325L736.14 1375L692.84 1400L649.54 1375L649.54 1325zM736.14 1375L779.45 1400L779.45 1450L736.14 1475L692.84 1450L692.84 1400zM692.84 1450L736.14 1475L736.14 1525L692.84 1550L649.54 1525L649.54 1475zM779.45 -50L822.75 -25L822.75 25L779.45 50L736.14 25L736.14 -25zM822.75 25L866.05 50L866.05 100L822.75 125L779.45 100L779.45 50zM779.45 100L822.75 125L822.75 175L779.45 200L736.14 175L736.14 125zM822.75 175L866.05 200L866.05 250L822.75 275L779.45 250L779.45 200zM779.45 250L822.75 275L822.75 325L779.45 350L736.14 325L736.14 275zM822.75 325L866.05 350L866.05 400L822.75 425L779.45 400L779.45 350zM779.45 400L822.75 425L822.75 475L779.45 500L736.14 475L736.14 425zM822.75 475L866.05 500L866.05 550L822.75 575L779.45 550L779.45 500zM779.45 550L822.75 575L822.75 625L779.45 650L736.14 625L736.14 575zM822.75 625L866.05 650L866.05 700L822.75 725L779.45 700L779.45 650zM779.45 700L822.75 725L822.75 775L779.45 800L736.14 775L736.14 725zM822.75 775L866.05 800L866.05 850L822.75 875L779.45 850L779.45 800zM779.45 850L822.75 875L822.75 925L779.45 950L736.14 925L736.14 875zM822.75 925L866.05 950L866.05 1000L822.75 1025L779.45 1000L779.45 950zM779.45 1000L822.75 1025L822.75 1075L779.45 1100L736.14 1075L736.14 1025zM822.75 1075L866.05 1100L866.05 1150L822.75 1175L779.45 1150L779.45 1100zM779.45 1150L822.75 1175L822.75 1225L779.45 1250L736.14 1225L736.14 1175zM822.75 1225L866.05 1250L866.05 1300L822.75 1325L779.45 1300L779.45 1250zM779.45 1300L822.75 1325L822.75 1375L779.45 1400L736.14 1375L736.14 1325zM822.75 1375L866.05 1400L866.05 1450L822.75 1475L779.45 1450L779.45 1400zM779.45 1450L822.75 1475L822.75 1525L779.45 1550L736.14 1525L736.14 1475zM866.05 -50L909.35 -25L909.35 25L866.05 50L822.75 25L822.75 -25zM909.35 25L952.66 50L952.66 100L909.35 125L866.05 100L866.05 50zM866.05 100L909.35 125L909.35 175L866.05 200L822.75 175L822.75 125zM909.35 175L952.66 200L952.66 250L909.35 275L866.05 250L866.05 200zM866.05 250L909.35 275L909.35 325L866.05 350L822.75 325L822.75 275zM909.35 325L952.66 350L952.66 400L909.35 425L866.05 400L866.05 350zM866.05 400L909.35 425L909.35 475L866.05 500L822.75 475L822.75 425zM909.35 475L952.66 500L952.66 550L909.35 575L866.05 550L866.05 500zM866.05 550L909.35 575L909.35 625L866.05 650L822.75 625L822.75 575zM909.35 625L952.66 650L952.66 700L909.35 725L866.05 700L866.05 650zM866.05 700L909.35 725L909.35 775L866.05 800L822.75 775L822.75 725zM909.35 775L952.66 800L952.66 850L909.35 875L866.05 850L866.05 800zM866.05 850L909.35 875L909.35 925L866.05 950L822.75 925L822.75 875zM909.35 925L952.66 950L952.66 1000L909.35 1025L866.05 1000L866.05 950zM866.05 1000L909.35 1025L909.35 1075L866.05 1100L822.75 1075L822.75 1025zM909.35 1075L952.66 1100L952.66 1150L909.35 1175L866.05 1150L866.05 1100zM866.05 1150L909.35 1175L909.35 1225L866.05 1250L822.75 1225L822.75 1175zM909.35 1225L952.66 1250L952.66 1300L909.35 1325L866.05 1300L866.05 1250zM866.05 1300L909.35 1325L909.35 1375L866.05 1400L822.75 1375L822.75 1325zM909.35 1375L952.66 1400L952.66 1450L909.35 1475L866.05 1450L866.05 1400zM866.05 1450L909.35 1475L909.35 1525L866.05 1550L822.75 1525L822.75 1475zM952.66 -50L995.96 -25L995.96 25L952.66 50L909.35 25L909.35 -25zM995.96 25L1039.26 50L1039.26 100L995.96 125L952.66 100L952.66 50zM952.66 100L995.96 125L995.96 175L952.66 200L909.35 175L909.35 125zM995.96 175L1039.26 200L1039.26 250L995.96 275L952.66 250L952.66 200zM952.66 250L995.96 275L995.96 325L952.66 350L909.35 325L909.35 275zM995.96 325L1039.26 350L1039.26 400L995.96 425L952.66 400L952.66 350zM952.66 400L995.96 425L995.96 475L952.66 500L909.35 475L909.35 425zM995.96 475L1039.26 500L1039.26 550L995.96 575L952.66 550L952.66 500zM952.66 550L995.96 575L995.96 625L952.66 650L909.35 625L909.35 575zM995.96 625L1039.26 650L1039.26 700L995.96 725L952.66 700L952.66 650zM952.66 700L995.96 725L995.96 775L952.66 800L909.35 775L909.35 725zM995.96 775L1039.26 800L1039.26 850L995.96 875L952.66 850L952.66 800zM952.66 850L995.96 875L995.96 925L952.66 950L909.35 925L909.35 875zM995.96 925L1039.26 950L1039.26 1000L995.96 1025L952.66 1000L952.66 950zM952.66 1000L995.96 1025L995.96 1075L952.66 1100L909.35 1075L909.35 1025zM995.96 1075L1039.26 1100L1039.26 1150L995.96 1175L952.66 1150L952.66 1100zM952.66 1150L995.96 1175L995.96 1225L952.66 1250L909.35 1225L909.35 1175zM995.96 1225L1039.26 1250L1039.26 1300L995.96 1325L952.66 1300L952.66 1250zM952.66 1300L995.96 1325L995.96 1375L952.66 1400L909.35 1375L909.35 1325zM995.96 1375L1039.26 1400L1039.26 1450L995.96 1475L952.66 1450L952.66 1400zM952.66 1450L995.96 1475L995.96 1525L952.66 1550L909.35 1525L909.35 1475zM1039.26 -50L1082.56 -25L1082.56 25L1039.26 50L995.96 25L995.96 -25zM1082.56 25L1125.87 50L1125.87 100L1082.56 125L1039.26 100L1039.26 50zM1039.26 100L1082.56 125L1082.56 175L1039.26 200L995.96 175L995.96 125zM1082.56 175L1125.87 200L1125.87 250L1082.56 275L1039.26 250L1039.26 200zM1039.26 250L1082.56 275L1082.56 325L1039.26 350L995.96 325L995.96 275zM1082.56 325L1125.87 350L1125.87 400L1082.56 425L1039.26 400L1039.26 350zM1039.26 400L1082.56 425L1082.56 475L1039.26 500L995.96 475L995.96 425zM1082.56 475L1125.87 500L1125.87 550L1082.56 575L1039.26 550L1039.26 500zM1039.26 550L1082.56 575L1082.56 625L1039.26 650L995.96 625L995.96 575zM1082.56 625L1125.87 650L1125.87 700L1082.56 725L1039.26 700L1039.26 650zM1039.26 700L1082.56 725L1082.56 775L1039.26 800L995.96 775L995.96 725zM1082.56 775L1125.87 800L1125.87 850L1082.56 875L1039.26 850L1039.26 800zM1039.26 850L1082.56 875L1082.56 925L1039.26 950L995.96 925L995.96 875zM1082.56 925L1125.87 950L1125.87 1000L1082.56 1025L1039.26 1000L1039.26 950zM1039.26 1000L1082.56 1025L1082.56 1075L1039.26 1100L995.96 1075L995.96 1025zM1082.56 1075L1125.87 1100L1125.87 1150L1082.56 1175L1039.26 1150L1039.26 1100zM1039.26 1150L1082.56 1175L1082.56 1225L1039.26 1250L995.96 1225L995.96 1175zM1082.56 1225L1125.87 1250L1125.87 1300L1082.56 1325L1039.26 1300L1039.26 1250zM1039.26 1300L1082.56 1325L1082.56 1375L1039.26 1400L995.96 1375L995.96 1325zM1082.56 1375L1125.87 1400L1125.87 1450L1082.56 1475L1039.26 1450L1039.26 1400zM1039.26 1450L1082.56 1475L1082.56 1525L1039.26 1550L995.96 1525L995.96 1475zM1125.87 -50L1169.17 -25L1169.17 25L1125.87 50L1082.56 25L1082.56 -25zM1169.17 25L1212.47 50L1212.47 100L1169.17 125L1125.87 100L1125.87 50zM1125.87 100L1169.17 125L1169.17 175L1125.87 200L1082.56 175L1082.56 125zM1169.17 175L1212.47 200L1212.47 250L1169.17 275L1125.87 250L1125.87 200zM1125.87 250L1169.17 275L1169.17 325L1125.87 350L1082.56 325L1082.56 275zM1169.17 325L1212.47 350L1212.47 400L1169.17 425L1125.87 400L1125.87 350zM1125.87 400L1169.17 425L1169.17 475L1125.87 500L1082.56 475L1082.56 425zM1169.17 475L1212.47 500L1212.47 550L1169.17 575L1125.87 550L1125.87 500zM1125.87 550L1169.17 575L1169.17 625L1125.87 650L1082.56 625L1082.56 575zM1169.17 625L1212.47 650L1212.47 700L1169.17 725L1125.87 700L1125.87 650zM1125.87 700L1169.17 725L1169.17 775L1125.87 800L1082.56 775L1082.56 725zM1169.17 775L1212.47 800L1212.47 850L1169.17 875L1125.87 850L1125.87 800zM1125.87 850L1169.17 875L1169.17 925L1125.87 950L1082.56 925L1082.56 875zM1169.17 925L1212.47 950L1212.47 1000L1169.17 1025L1125.87 1000L1125.87 950zM1125.87 1000L1169.17 1025L1169.17 1075L1125.87 1100L1082.56 1075L1082.56 1025zM1169.17 1075L1212.47 1100L1212.47 1150L1169.17 1175L1125.87 1150L1125.87 1100zM1125.87 1150L1169.17 1175L1169.17 1225L1125.87 1250L1082.56 1225L1082.56 1175zM1169.17 1225L1212.47 1250L1212.47 1300L1169.17 1325L1125.87 1300L1125.87 1250zM1125.87 1300L1169.17 1325L1169.17 1375L1125.87 1400L1082.56 1375L1082.56 1325zM1169.17 1375L1212.47 1400L1212.47 1450L1169.17 1475L1125.87 1450L1125.87 1400zM1125.87 1450L1169.17 1475L1169.17 1525L1125.87 1550L1082.56 1525L1082.56 1475zM1212.47 -50L1255.77 -25L1255.77 25L1212.47 50L1169.17 25L1169.17 -25zM1255.77 25L1299.08 50L1299.08 100L1255.77 125L1212.47 100L1212.47 50zM1212.47 100L1255.77 125L1255.77 175L1212.47 200L1169.17 175L1169.17 125zM1255.77 175L1299.08 200L1299.08 250L1255.77 275L1212.47 250L1212.47 200zM1212.47 250L1255.77 275L1255.77 325L1212.47 350L1169.17 325L1169.17 275zM1255.77 325L1299.08 350L1299.08 400L1255.77 425L1212.47 400L1212.47 350zM1212.47 400L1255.77 425L1255.77 475L1212.47 500L1169.17 475L1169.17 425zM1255.77 475L1299.08 500L1299.08 550L1255.77 575L1212.47 550L1212.47 500zM1212.47 550L1255.77 575L1255.77 625L1212.47 650L1169.17 625L1169.17 575zM1255.77 625L1299.08 650L1299.08 700L1255.77 725L1212.47 700L1212.47 650zM1212.47 700L1255.77 725L1255.77 775L1212.47 800L1169.17 775L1169.17 725zM1255.77 775L1299.08 800L1299.08 850L1255.77 875L1212.47 850L1212.47 800zM1212.47 850L1255.77 875L1255.77 925L1212.47 950L1169.17 925L1169.17 875zM1255.77 925L1299.08 950L1299.08 1000L1255.77 1025L1212.47 1000L1212.47 950zM1212.47 1000L1255.77 1025L1255.77 1075L1212.47 1100L1169.17 1075L1169.17 1025zM1255.77 1075L1299.08 1100L1299.08 1150L1255.77 1175L1212.47 1150L1212.47 1100zM1212.47 1150L1255.77 1175L1255.77 1225L1212.47 1250L1169.17 1225L1169.17 1175zM1255.77 1225L1299.08 1250L1299.08 1300L1255.77 1325L1212.47 1300L1212.47 1250zM1212.47 1300L1255.77 1325L1255.77 1375L1212.47 1400L1169.17 1375L1169.17 1325zM1255.77 1375L1299.08 1400L1299.08 1450L1255.77 1475L1212.47 1450L1212.47 1400zM1212.47 1450L1255.77 1475L1255.77 1525L1212.47 1550L1169.17 1525L1169.17 1475zM1299.08 -50L1342.38 -25L1342.38 25L1299.08 50L1255.77 25L1255.77 -25zM1342.38 25L1385.68 50L1385.68 100L1342.38 125L1299.08 100L1299.08 50zM1299.08 100L1342.38 125L1342.38 175L1299.08 200L1255.77 175L1255.77 125zM1342.38 175L1385.68 200L1385.68 250L1342.38 275L1299.08 250L1299.08 200zM1299.08 250L1342.38 275L1342.38 325L1299.08 350L1255.77 325L1255.77 275zM1342.38 325L1385.68 350L1385.68 400L1342.38 425L1299.08 400L1299.08 350zM1299.08 400L1342.38 425L1342.38 475L1299.08 500L1255.77 475L1255.77 425zM1342.38 475L1385.68 500L1385.68 550L1342.38 575L1299.08 550L1299.08 500zM1299.08 550L1342.38 575L1342.38 625L1299.08 650L1255.77 625L1255.77 575zM1342.38 625L1385.68 650L1385.68 700L1342.38 725L1299.08 700L1299.08 650zM1299.08 700L1342.38 725L1342.38 775L1299.08 800L1255.77 775L1255.77 725zM1342.38 775L1385.68 800L1385.68 850L1342.38 875L1299.08 850L1299.08 800zM1299.08 850L1342.38 875L1342.38 925L1299.08 950L1255.77 925L1255.77 875zM1342.38 925L1385.68 950L1385.68 1000L1342.38 1025L1299.08 1000L1299.08 950zM1299.08 1000L1342.38 1025L1342.38 1075L1299.08 1100L1255.77 1075L1255.77 1025zM1342.38 1075L1385.68 1100L1385.68 1150L1342.38 1175L1299.08 1150L1299.08 1100zM1299.08 1150L1342.38 1175L1342.38 1225L1299.08 1250L1255.77 1225L1255.77 1175zM1342.38 1225L1385.68 1250L1385.68 1300L1342.38 1325L1299.08 1300L1299.08 1250zM1299.08 1300L1342.38 1325L1342.38 1375L1299.08 1400L1255.77 1375L1255.77 1325zM1342.38 1375L1385.68 1400L1385.68 1450L1342.38 1475L1299.08 1450L1299.08 1400zM1299.08 1450L1342.38 1475L1342.38 1525L1299.08 1550L1255.77 1525L1255.77 1475zM1385.68 -50L1428.98 -25L1428.98 25L1385.68 50L1342.38 25L1342.38 -25zM1428.98 25L1472.29 50L1472.29 100L1428.98 125L1385.68 100L1385.68 50zM1385.68 100L1428.98 125L1428.98 175L1385.68 200L1342.38 175L1342.38 125zM1428.98 175L1472.29 200L1472.29 250L1428.98 275L1385.68 250L1385.68 200zM1385.68 250L1428.98 275L1428.98 325L1385.68 350L1342.38 325L1342.38 275zM1428.98 325L1472.29 350L1472.29 400L1428.98 425L1385.68 400L1385.68 350zM1385.68 400L1428.98 425L1428.98 475L1385.68 500L1342.38 475L1342.38 425zM1428.98 475L1472.29 500L1472.29 550L1428.98 575L1385.68 550L1385.68 500zM1385.68 550L1428.98 575L1428.98 625L1385.68 650L1342.38 625L1342.38 575zM1428.98 625L1472.29 650L1472.29 700L1428.98 725L1385.68 700L1385.68 650zM1385.68 700L1428.98 725L1428.98 775L1385.68 800L1342.38 775L1342.38 725zM1428.98 775L1472.29 800L1472.29 850L1428.98 875L1385.68 850L1385.68 800zM1385.68 850L1428.98 875L1428.98 925L1385.68 950L1342.38 925L1342.38 875zM1428.98 925L1472.29 950L1472.29 1000L1428.98 1025L1385.68 1000L1385.68 950zM1385.68 1000L1428.98 1025L1428.98 1075L1385.68 1100L1342.38 1075L1342.38 1025zM1428.98 1075L1472.29 1100L1472.29 1150L1428.98 1175L1385.68 1150L1385.68 1100zM1385.68 1150L1428.98 1175L1428.98 1225L1385.68 1250L1342.38 1225L1342.38 1175zM1428.98 1225L1472.29 1250L1472.29 1300L1428.98 1325L1385.68 1300L1385.68 1250zM1385.68 1300L1428.98 1325L1428.98 1375L1385.68 1400L1342.38 1375L1342.38 1325zM1428.98 1375L1472.29 1400L1472.29 1450L1428.98 1475L1385.68 1450L1385.68 1400zM1385.68 1450L1428.98 1475L1428.98 1525L1385.68 1550L1342.38 1525L1342.38 1475zM1472.29 -50L1515.59 -25L1515.59 25L1472.29 50L1428.98 25L1428.98 -25zM1515.59 25L1558.89 50L1558.89 100L1515.59 125L1472.29 100L1472.29 50zM1472.29 100L1515.59 125L1515.59 175L1472.29 200L1428.98 175L1428.98 125zM1515.59 175L1558.89 200L1558.89 250L1515.59 275L1472.29 250L1472.29 200zM1472.29 250L1515.59 275L1515.59 325L1472.29 350L1428.98 325L1428.98 275zM1515.59 325L1558.89 350L1558.89 400L1515.59 425L1472.29 400L1472.29 350zM1472.29 400L1515.59 425L1515.59 475L1472.29 500L1428.98 475L1428.98 425zM1515.59 475L1558.89 500L1558.89 550L1515.59 575L1472.29 550L1472.29 500zM1472.29 550L1515.59 575L1515.59 625L1472.29 650L1428.98 625L1428.98 575zM1515.59 625L1558.89 650L1558.89 700L1515.59 725L1472.29 700L1472.29 650zM1472.29 700L1515.59 725L1515.59 775L1472.29 800L1428.98 775L1428.98 725zM1515.59 775L1558.89 800L1558.89 850L1515.59 875L1472.29 850L1472.29 800zM1472.29 850L1515.59 875L1515.59 925L1472.29 950L1428.98 925L1428.98 875zM1515.59 925L1558.89 950L1558.89 1000L1515.59 1025L1472.29 1000L1472.29 950zM1472.29 1000L1515.59 1025L1515.59 1075L1472.29 1100L1428.98 1075L1428.98 1025zM1515.59 1075L1558.89 1100L1558.89 1150L1515.59 1175L1472.29 1150L1472.29 1100zM1472.29 1150L1515.59 1175L1515.59 1225L1472.29 1250L1428.98 1225L1428.98 1175zM1515.59 1225L1558.89 1250L1558.89 1300L1515.59 1325L1472.29 1300L1472.29 1250zM1472.29 1300L1515.59 1325L1515.59 1375L1472.29 1400L1428.98 1375L1428.98 1325zM1515.59 1375L1558.89 1400L1558.89 1450L1515.59 1475L1472.29 1450L1472.29 1400zM1472.29 1450L1515.59 1475L1515.59 1525L1472.29 1550L1428.98 1525L1428.98 1475z" stroke="rgba(95, 50, 167, 1)" stroke-width="2"></path><path d="M-5 -50 a5 5 0 1 0 10 0 a5 5 0 1 0 -10 0zM38.3 -25 a5 5 0 1 0 10 0 a5 5 0 1 0 -10 0zM38.3 25 a5 5 0 1 0 10 0 a5 5 0 1 0 -10 0zM-5 50 a5 5 0 1 0 10 0 a5 5 0 1 0 -10 0zM-48.3 25 a5 5 0 1 0 10 0 a5 5 0 1 0 -10 0zM-48.3 -25 a5 5 0 1 0 10 0 a5 5 0 1 0 -10 0zM81.61 50 a5 5 0 1 0 10 0 a5 5 0 1 0 -10 0zM81.61 100 a5 5 0 1 0 10 0 a5 5 0 1 0 -10 0zM38.3 125 a5 5 0 1 0 10 0 a5 5 0 1 0 -10 0zM-5 100 a5 5 0 1 0 10 0 a5 5 0 1 0 -10 0zM38.3 175 a5 5 0 1 0 10 0 a5 5 0 1 0 -10 0zM-5 200 a5 5 0 1 0 10 0 a5 5 0 1 0 -10 0zM-48.3 175 a5 5 0 1 0 10 0 a5 5 0 1 0 -10 0zM-48.3 125 a5 5 0 1 0 10 0 a5 5 0 1 0 -10 0zM81.61 200 a5 5 0 1 0 10 0 a5 5 0 1 0 -10 0zM81.61 250 a5 5 0 1 0 10 0 a5 5 0 1 0 -10 0zM38.3 275 a5 5 0 1 0 10 0 a5 5 0 1 0 -10 0zM-5 250 a5 5 0 1 0 10 0 a5 5 0 1 0 -10 0zM38.3 325 a5 5 0 1 0 10 0 a5 5 0 1 0 -10 0zM-5 350 a5 5 0 1 0 10 0 a5 5 0 1 0 -10 0zM-48.3 325 a5 5 0 1 0 10 0 a5 5 0 1 0 -10 0zM-48.3 275 a5 5 0 1 0 10 0 a5 5 0 1 0 -10 0zM81.61 350 a5 5 0 1 0 10 0 a5 5 0 1 0 -10 0zM81.61 400 a5 5 0 1 0 10 0 a5 5 0 1 0 -10 0zM38.3 425 a5 5 0 1 0 10 0 a5 5 0 1 0 -10 0zM-5 400 a5 5 0 1 0 10 0 a5 5 0 1 0 -10 0zM38.3 475 a5 5 0 1 0 10 0 a5 5 0 1 0 -10 0zM-5 500 a5 5 0 1 0 10 0 a5 5 0 1 0 -10 0zM-48.3 475 a5 5 0 1 0 10 0 a5 5 0 1 0 -10 0zM-48.3 425 a5 5 0 1 0 10 0 a5 5 0 1 0 -10 0zM81.61 500 a5 5 0 1 0 10 0 a5 5 0 1 0 -10 0zM81.61 550 a5 5 0 1 0 10 0 a5 5 0 1 0 -10 0zM38.3 575 a5 5 0 1 0 10 0 a5 5 0 1 0 -10 0zM-5 550 a5 5 0 1 0 10 0 a5 5 0 1 0 -10 0zM38.3 625 a5 5 0 1 0 10 0 a5 5 0 1 0 -10 0zM-5 650 a5 5 0 1 0 10 0 a5 5 0 1 0 -10 0zM-48.3 625 a5 5 0 1 0 10 0 a5 5 0 1 0 -10 0zM-48.3 575 a5 5 0 1 0 10 0 a5 5 0 1 0 -10 0zM81.61 650 a5 5 0 1 0 10 0 a5 5 0 1 0 -10 0zM81.61 700 a5 5 0 1 0 10 0 a5 5 0 1 0 -10 0zM38.3 725 a5 5 0 1 0 10 0 a5 5 0 1 0 -10 0zM-5 700 a5 5 0 1 0 10 0 a5 5 0 1 0 -10 0zM38.3 775 a5 5 0 1 0 10 0 a5 5 0 1 0 -10 0zM-5 800 a5 5 0 1 0 10 0 a5 5 0 1 0 -10 0zM-48.3 775 a5 5 0 1 0 10 0 a5 5 0 1 0 -10 0zM-48.3 725 a5 5 0 1 0 10 0 a5 5 0 1 0 -10 0zM81.61 800 a5 5 0 1 0 10 0 a5 5 0 1 0 -10 0zM81.61 850 a5 5 0 1 0 10 0 a5 5 0 1 0 -10 0zM38.3 875 a5 5 0 1 0 10 0 a5 5 0 1 0 -10 0zM-5 850 a5 5 0 1 0 10 0 a5 5 0 1 0 -10 0zM38.3 925 a5 5 0 1 0 10 0 a5 5 0 1 0 -10 0zM-5 950 a5 5 0 1 0 10 0 a5 5 0 1 0 -10 0zM-48.3 925 a5 5 0 1 0 10 0 a5 5 0 1 0 -10 0zM-48.3 875 a5 5 0 1 0 10 0 a5 5 0 1 0 -10 0zM81.61 950 a5 5 0 1 0 10 0 a5 5 0 1 0 -10 0zM81.61 1000 a5 5 0 1 0 10 0 a5 5 0 1 0 -10 0zM38.3 1025 a5 5 0 1 0 10 0 a5 5 0 1 0 -10 0zM-5 1000 a5 5 0 1 0 10 0 a5 5 0 1 0 -10 0zM38.3 1075 a5 5 0 1 0 10 0 a5 5 0 1 0 -10 0zM-5 1100 a5 5 0 1 0 10 0 a5 5 0 1 0 -10 0zM-48.3 1075 a5 5 0 1 0 10 0 a5 5 0 1 0 -10 0zM-48.3 1025 a5 5 0 1 0 10 0 a5 5 0 1 0 -10 0zM81.61 1100 a5 5 0 1 0 10 0 a5 5 0 1 0 -10 0zM81.61 1150 a5 5 0 1 0 10 0 a5 5 0 1 0 -10 0zM38.3 1175 a5 5 0 1 0 10 0 a5 5 0 1 0 -10 0zM-5 1150 a5 5 0 1 0 10 0 a5 5 0 1 0 -10 0zM38.3 1225 a5 5 0 1 0 10 0 a5 5 0 1 0 -10 0zM-5 1250 a5 5 0 1 0 10 0 a5 5 0 1 0 -10 0zM-48.3 1225 a5 5 0 1 0 10 0 a5 5 0 1 0 -10 0zM-48.3 1175 a5 5 0 1 0 10 0 a5 5 0 1 0 -10 0zM81.61 1250 a5 5 0 1 0 10 0 a5 5 0 1 0 -10 0zM81.61 1300 a5 5 0 1 0 10 0 a5 5 0 1 0 -10 0zM38.3 1325 a5 5 0 1 0 10 0 a5 5 0 1 0 -10 0zM-5 1300 a5 5 0 1 0 10 0 a5 5 0 1 0 -10 0zM38.3 1375 a5 5 0 1 0 10 0 a5 5 0 1 0 -10 0zM-5 1400 a5 5 0 1 0 10 0 a5 5 0 1 0 -10 0zM-48.3 1375 a5 5 0 1 0 10 0 a5 5 0 1 0 -10 0zM-48.3 1325 a5 5 0 1 0 10 0 a5 5 0 1 0 -10 0zM81.61 1400 a5 5 0 1 0 10 0 a5 5 0 1 0 -10 0zM81.61 1450 a5 5 0 1 0 10 0 a5 5 0 1 0 -10 0zM38.3 1475 a5 5 0 1 0 10 0 a5 5 0 1 0 -10 0zM-5 1450 a5 5 0 1 0 10 0 a5 5 0 1 0 -10 0zM38.3 1525 a5 5 0 1 0 10 0 a5 5 0 1 0 -10 0zM-5 1550 a5 5 0 1 0 10 0 a5 5 0 1 0 -10 0zM-48.3 1525 a5 5 0 1 0 10 0 a5 5 0 1 0 -10 0zM-48.3 1475 a5 5 0 1 0 10 0 a5 5 0 1 0 -10 0zM81.61 -50 a5 5 0 1 0 10 0 a5 5 0 1 0 -10 0zM124.91 -25 a5 5 0 1 0 10 0 a5 5 0 1 0 -10 0zM124.91 25 a5 5 0 1 0 10 0 a5 5 0 1 0 -10 0zM168.21 50 a5 5 0 1 0 10 0 a5 5 0 1 0 -10 0zM168.21 100 a5 5 0 1 0 10 0 a5 5 0 1 0 -10 0zM124.91 125 a5 5 0 1 0 10 0 a5 5 0 1 0 -10 0zM124.91 175 a5 5 0 1 0 10 0 a5 5 0 1 0 -10 0zM168.21 200 a5 5 0 1 0 10 0 a5 5 0 1 0 -10 0zM168.21 250 a5 5 0 1 0 10 0 a5 5 0 1 0 -10 0zM124.91 275 a5 5 0 1 0 10 0 a5 5 0 1 0 -10 0zM124.91 325 a5 5 0 1 0 10 0 a5 5 0 1 0 -10 0zM168.21 350 a5 5 0 1 0 10 0 a5 5 0 1 0 -10 0zM168.21 400 a5 5 0 1 0 10 0 a5 5 0 1 0 -10 0zM124.91 425 a5 5 0 1 0 10 0 a5 5 0 1 0 -10 0zM124.91 475 a5 5 0 1 0 10 0 a5 5 0 1 0 -10 0zM168.21 500 a5 5 0 1 0 10 0 a5 5 0 1 0 -10 0zM168.21 550 a5 5 0 1 0 10 0 a5 5 0 1 0 -10 0zM124.91 575 a5 5 0 1 0 10 0 a5 5 0 1 0 -10 0zM124.91 625 a5 5 0 1 0 10 0 a5 5 0 1 0 -10 0zM168.21 650 a5 5 0 1 0 10 0 a5 5 0 1 0 -10 0zM168.21 700 a5 5 0 1 0 10 0 a5 5 0 1 0 -10 0zM124.91 725 a5 5 0 1 0 10 0 a5 5 0 1 0 -10 0zM124.91 775 a5 5 0 1 0 10 0 a5 5 0 1 0 -10 0zM168.21 800 a5 5 0 1 0 10 0 a5 5 0 1 0 -10 0zM168.21 850 a5 5 0 1 0 10 0 a5 5 0 1 0 -10 0zM124.91 875 a5 5 0 1 0 10 0 a5 5 0 1 0 -10 0zM124.91 925 a5 5 0 1 0 10 0 a5 5 0 1 0 -10 0zM168.21 950 a5 5 0 1 0 10 0 a5 5 0 1 0 -10 0zM168.21 1000 a5 5 0 1 0 10 0 a5 5 0 1 0 -10 0zM124.91 1025 a5 5 0 1 0 10 0 a5 5 0 1 0 -10 0zM124.91 1075 a5 5 0 1 0 10 0 a5 5 0 1 0 -10 0zM168.21 1100 a5 5 0 1 0 10 0 a5 5 0 1 0 -10 0zM168.21 1150 a5 5 0 1 0 10 0 a5 5 0 1 0 -10 0zM124.91 1175 a5 5 0 1 0 10 0 a5 5 0 1 0 -10 0zM124.91 1225 a5 5 0 1 0 10 0 a5 5 0 1 0 -10 0zM168.21 1250 a5 5 0 1 0 10 0 a5 5 0 1 0 -10 0zM168.21 1300 a5 5 0 1 0 10 0 a5 5 0 1 0 -10 0zM124.91 1325 a5 5 0 1 0 10 0 a5 5 0 1 0 -10 0zM124.91 1375 a5 5 0 1 0 10 0 a5 5 0 1 0 -10 0zM168.21 1400 a5 5 0 1 0 10 0 a5 5 0 1 0 -10 0zM168.21 1450 a5 5 0 1 0 10 0 a5 5 0 1 0 -10 0zM124.91 1475 a5 5 0 1 0 10 0 a5 5 0 1 0 -10 0zM124.91 1525 a5 5 0 1 0 10 0 a5 5 0 1 0 -10 0zM81.61 1550 a5 5 0 1 0 10 0 a5 5 0 1 0 -10 0zM168.21 -50 a5 5 0 1 0 10 0 a5 5 0 1 0 -10 0zM211.51 -25 a5 5 0 1 0 10 0 a5 5 0 1 0 -10 0zM211.51 25 a5 5 0 1 0 10 0 a5 5 0 1 0 -10 0zM254.81 50 a5 5 0 1 0 10 0 a5 5 0 1 0 -10 0zM254.81 100 a5 5 0 1 0 10 0 a5 5 0 1 0 -10 0zM211.51 125 a5 5 0 1 0 10 0 a5 5 0 1 0 -10 0zM211.51 175 a5 5 0 1 0 10 0 a5 5 0 1 0 -10 0zM254.81 200 a5 5 0 1 0 10 0 a5 5 0 1 0 -10 0zM254.81 250 a5 5 0 1 0 10 0 a5 5 0 1 0 -10 0zM211.51 275 a5 5 0 1 0 10 0 a5 5 0 1 0 -10 0zM211.51 325 a5 5 0 1 0 10 0 a5 5 0 1 0 -10 0zM254.81 350 a5 5 0 1 0 10 0 a5 5 0 1 0 -10 0zM254.81 400 a5 5 0 1 0 10 0 a5 5 0 1 0 -10 0zM211.51 425 a5 5 0 1 0 10 0 a5 5 0 1 0 -10 0zM211.51 475 a5 5 0 1 0 10 0 a5 5 0 1 0 -10 0zM254.81 500 a5 5 0 1 0 10 0 a5 5 0 1 0 -10 0zM254.81 550 a5 5 0 1 0 10 0 a5 5 0 1 0 -10 0zM211.51 575 a5 5 0 1 0 10 0 a5 5 0 1 0 -10 0zM211.51 625 a5 5 0 1 0 10 0 a5 5 0 1 0 -10 0zM254.81 650 a5 5 0 1 0 10 0 a5 5 0 1 0 -10 0zM254.81 700 a5 5 0 1 0 10 0 a5 5 0 1 0 -10 0zM211.51 725 a5 5 0 1 0 10 0 a5 5 0 1 0 -10 0zM211.51 775 a5 5 0 1 0 10 0 a5 5 0 1 0 -10 0zM254.81 800 a5 5 0 1 0 10 0 a5 5 0 1 0 -10 0zM254.81 850 a5 5 0 1 0 10 0 a5 5 0 1 0 -10 0zM211.51 875 a5 5 0 1 0 10 0 a5 5 0 1 0 -10 0zM211.51 925 a5 5 0 1 0 10 0 a5 5 0 1 0 -10 0zM254.81 950 a5 5 0 1 0 10 0 a5 5 0 1 0 -10 0zM254.81 1000 a5 5 0 1 0 10 0 a5 5 0 1 0 -10 0zM211.51 1025 a5 5 0 1 0 10 0 a5 5 0 1 0 -10 0zM211.51 1075 a5 5 0 1 0 10 0 a5 5 0 1 0 -10 0zM254.81 1100 a5 5 0 1 0 10 0 a5 5 0 1 0 -10 0zM254.81 1150 a5 5 0 1 0 10 0 a5 5 0 1 0 -10 0zM211.51 1175 a5 5 0 1 0 10 0 a5 5 0 1 0 -10 0zM211.51 1225 a5 5 0 1 0 10 0 a5 5 0 1 0 -10 0zM254.81 1250 a5 5 0 1 0 10 0 a5 5 0 1 0 -10 0zM254.81 1300 a5 5 0 1 0 10 0 a5 5 0 1 0 -10 0zM211.51 1325 a5 5 0 1 0 10 0 a5 5 0 1 0 -10 0zM211.51 1375 a5 5 0 1 0 10 0 a5 5 0 1 0 -10 0zM254.81 1400 a5 5 0 1 0 10 0 a5 5 0 1 0 -10 0zM254.81 1450 a5 5 0 1 0 10 0 a5 5 0 1 0 -10 0zM211.51 1475 a5 5 0 1 0 10 0 a5 5 0 1 0 -10 0zM211.51 1525 a5 5 0 1 0 10 0 a5 5 0 1 0 -10 0zM168.21 1550 a5 5 0 1 0 10 0 a5 5 0 1 0 -10 0zM254.81 -50 a5 5 0 1 0 10 0 a5 5 0 1 0 -10 0zM298.12 -25 a5 5 0 1 0 10 0 a5 5 0 1 0 -10 0zM298.12 25 a5 5 0 1 0 10 0 a5 5 0 1 0 -10 0zM341.42 50 a5 5 0 1 0 10 0 a5 5 0 1 0 -10 0zM341.42 100 a5 5 0 1 0 10 0 a5 5 0 1 0 -10 0zM298.12 125 a5 5 0 1 0 10 0 a5 5 0 1 0 -10 0zM298.12 175 a5 5 0 1 0 10 0 a5 5 0 1 0 -10 0zM341.42 200 a5 5 0 1 0 10 0 a5 5 0 1 0 -10 0zM341.42 250 a5 5 0 1 0 10 0 a5 5 0 1 0 -10 0zM298.12 275 a5 5 0 1 0 10 0 a5 5 0 1 0 -10 0zM298.12 325 a5 5 0 1 0 10 0 a5 5 0 1 0 -10 0zM341.42 350 a5 5 0 1 0 10 0 a5 5 0 1 0 -10 0zM341.42 400 a5 5 0 1 0 10 0 a5 5 0 1 0 -10 0zM298.12 425 a5 5 0 1 0 10 0 a5 5 0 1 0 -10 0zM298.12 475 a5 5 0 1 0 10 0 a5 5 0 1 0 -10 0zM341.42 500 a5 5 0 1 0 10 0 a5 5 0 1 0 -10 0zM341.42 550 a5 5 0 1 0 10 0 a5 5 0 1 0 -10 0zM298.12 575 a5 5 0 1 0 10 0 a5 5 0 1 0 -10 0zM298.12 625 a5 5 0 1 0 10 0 a5 5 0 1 0 -10 0zM341.42 650 a5 5 0 1 0 10 0 a5 5 0 1 0 -10 0zM341.42 700 a5 5 0 1 0 10 0 a5 5 0 1 0 -10 0zM298.12 725 a5 5 0 1 0 10 0 a5 5 0 1 0 -10 0zM298.12 775 a5 5 0 1 0 10 0 a5 5 0 1 0 -10 0zM341.42 800 a5 5 0 1 0 10 0 a5 5 0 1 0 -10 0zM341.42 850 a5 5 0 1 0 10 0 a5 5 0 1 0 -10 0zM298.12 875 a5 5 0 1 0 10 0 a5 5 0 1 0 -10 0zM298.12 925 a5 5 0 1 0 10 0 a5 5 0 1 0 -10 0zM341.42 950 a5 5 0 1 0 10 0 a5 5 0 1 0 -10 0zM341.42 1000 a5 5 0 1 0 10 0 a5 5 0 1 0 -10 0zM298.12 1025 a5 5 0 1 0 10 0 a5 5 0 1 0 -10 0zM298.12 1075 a5 5 0 1 0 10 0 a5 5 0 1 0 -10 0zM341.42 1100 a5 5 0 1 0 10 0 a5 5 0 1 0 -10 0zM341.42 1150 a5 5 0 1 0 10 0 a5 5 0 1 0 -10 0zM298.12 1175 a5 5 0 1 0 10 0 a5 5 0 1 0 -10 0zM298.12 1225 a5 5 0 1 0 10 0 a5 5 0 1 0 -10 0zM341.42 1250 a5 5 0 1 0 10 0 a5 5 0 1 0 -10 0zM341.42 1300 a5 5 0 1 0 10 0 a5 5 0 1 0 -10 0zM298.12 1325 a5 5 0 1 0 10 0 a5 5 0 1 0 -10 0zM298.12 1375 a5 5 0 1 0 10 0 a5 5 0 1 0 -10 0zM341.42 1400 a5 5 0 1 0 10 0 a5 5 0 1 0 -10 0zM341.42 1450 a5 5 0 1 0 10 0 a5 5 0 1 0 -10 0zM298.12 1475 a5 5 0 1 0 10 0 a5 5 0 1 0 -10 0zM298.12 1525 a5 5 0 1 0 10 0 a5 5 0 1 0 -10 0zM254.81 1550 a5 5 0 1 0 10 0 a5 5 0 1 0 -10 0zM341.42 -50 a5 5 0 1 0 10 0 a5 5 0 1 0 -10 0zM384.72 -25 a5 5 0 1 0 10 0 a5 5 0 1 0 -10 0zM384.72 25 a5 5 0 1 0 10 0 a5 5 0 1 0 -10 0zM428.03 50 a5 5 0 1 0 10 0 a5 5 0 1 0 -10 0zM428.03 100 a5 5 0 1 0 10 0 a5 5 0 1 0 -10 0zM384.72 125 a5 5 0 1 0 10 0 a5 5 0 1 0 -10 0zM384.72 175 a5 5 0 1 0 10 0 a5 5 0 1 0 -10 0zM428.03 200 a5 5 0 1 0 10 0 a5 5 0 1 0 -10 0zM428.03 250 a5 5 0 1 0 10 0 a5 5 0 1 0 -10 0zM384.72 275 a5 5 0 1 0 10 0 a5 5 0 1 0 -10 0zM384.72 325 a5 5 0 1 0 10 0 a5 5 0 1 0 -10 0zM428.03 350 a5 5 0 1 0 10 0 a5 5 0 1 0 -10 0zM428.03 400 a5 5 0 1 0 10 0 a5 5 0 1 0 -10 0zM384.72 425 a5 5 0 1 0 10 0 a5 5 0 1 0 -10 0zM384.72 475 a5 5 0 1 0 10 0 a5 5 0 1 0 -10 0zM428.03 500 a5 5 0 1 0 10 0 a5 5 0 1 0 -10 0zM428.03 550 a5 5 0 1 0 10 0 a5 5 0 1 0 -10 0zM384.72 575 a5 5 0 1 0 10 0 a5 5 0 1 0 -10 0zM384.72 625 a5 5 0 1 0 10 0 a5 5 0 1 0 -10 0zM428.03 650 a5 5 0 1 0 10 0 a5 5 0 1 0 -10 0zM428.03 700 a5 5 0 1 0 10 0 a5 5 0 1 0 -10 0zM384.72 725 a5 5 0 1 0 10 0 a5 5 0 1 0 -10 0zM384.72 775 a5 5 0 1 0 10 0 a5 5 0 1 0 -10 0zM428.03 800 a5 5 0 1 0 10 0 a5 5 0 1 0 -10 0zM428.03 850 a5 5 0 1 0 10 0 a5 5 0 1 0 -10 0zM384.72 875 a5 5 0 1 0 10 0 a5 5 0 1 0 -10 0zM384.72 925 a5 5 0 1 0 10 0 a5 5 0 1 0 -10 0zM428.03 950 a5 5 0 1 0 10 0 a5 5 0 1 0 -10 0zM428.03 1000 a5 5 0 1 0 10 0 a5 5 0 1 0 -10 0zM384.72 1025 a5 5 0 1 0 10 0 a5 5 0 1 0 -10 0zM384.72 1075 a5 5 0 1 0 10 0 a5 5 0 1 0 -10 0zM428.03 1100 a5 5 0 1 0 10 0 a5 5 0 1 0 -10 0zM428.03 1150 a5 5 0 1 0 10 0 a5 5 0 1 0 -10 0zM384.72 1175 a5 5 0 1 0 10 0 a5 5 0 1 0 -10 0zM384.72 1225 a5 5 0 1 0 10 0 a5 5 0 1 0 -10 0zM428.03 1250 a5 5 0 1 0 10 0 a5 5 0 1 0 -10 0zM428.03 1300 a5 5 0 1 0 10 0 a5 5 0 1 0 -10 0zM384.72 1325 a5 5 0 1 0 10 0 a5 5 0 1 0 -10 0zM384.72 1375 a5 5 0 1 0 10 0 a5 5 0 1 0 -10 0zM428.03 1400 a5 5 0 1 0 10 0 a5 5 0 1 0 -10 0zM428.03 1450 a5 5 0 1 0 10 0 a5 5 0 1 0 -10 0zM384.72 1475 a5 5 0 1 0 10 0 a5 5 0 1 0 -10 0zM384.72 1525 a5 5 0 1 0 10 0 a5 5 0 1 0 -10 0zM341.42 1550 a5 5 0 1 0 10 0 a5 5 0 1 0 -10 0zM428.03 -50 a5 5 0 1 0 10 0 a5 5 0 1 0 -10 0zM471.33 -25 a5 5 0 1 0 10 0 a5 5 0 1 0 -10 0zM471.33 25 a5 5 0 1 0 10 0 a5 5 0 1 0 -10 0zM514.63 50 a5 5 0 1 0 10 0 a5 5 0 1 0 -10 0zM514.63 100 a5 5 0 1 0 10 0 a5 5 0 1 0 -10 0zM471.33 125 a5 5 0 1 0 10 0 a5 5 0 1 0 -10 0zM471.33 175 a5 5 0 1 0 10 0 a5 5 0 1 0 -10 0zM514.63 200 a5 5 0 1 0 10 0 a5 5 0 1 0 -10 0zM514.63 250 a5 5 0 1 0 10 0 a5 5 0 1 0 -10 0zM471.33 275 a5 5 0 1 0 10 0 a5 5 0 1 0 -10 0zM471.33 325 a5 5 0 1 0 10 0 a5 5 0 1 0 -10 0zM514.63 350 a5 5 0 1 0 10 0 a5 5 0 1 0 -10 0zM514.63 400 a5 5 0 1 0 10 0 a5 5 0 1 0 -10 0zM471.33 425 a5 5 0 1 0 10 0 a5 5 0 1 0 -10 0zM471.33 475 a5 5 0 1 0 10 0 a5 5 0 1 0 -10 0zM514.63 500 a5 5 0 1 0 10 0 a5 5 0 1 0 -10 0zM514.63 550 a5 5 0 1 0 10 0 a5 5 0 1 0 -10 0zM471.33 575 a5 5 0 1 0 10 0 a5 5 0 1 0 -10 0zM471.33 625 a5 5 0 1 0 10 0 a5 5 0 1 0 -10 0zM514.63 650 a5 5 0 1 0 10 0 a5 5 0 1 0 -10 0zM514.63 700 a5 5 0 1 0 10 0 a5 5 0 1 0 -10 0zM471.33 725 a5 5 0 1 0 10 0 a5 5 0 1 0 -10 0zM471.33 775 a5 5 0 1 0 10 0 a5 5 0 1 0 -10 0zM514.63 800 a5 5 0 1 0 10 0 a5 5 0 1 0 -10 0zM514.63 850 a5 5 0 1 0 10 0 a5 5 0 1 0 -10 0zM471.33 875 a5 5 0 1 0 10 0 a5 5 0 1 0 -10 0zM471.33 925 a5 5 0 1 0 10 0 a5 5 0 1 0 -10 0zM514.63 950 a5 5 0 1 0 10 0 a5 5 0 1 0 -10 0zM514.63 1000 a5 5 0 1 0 10 0 a5 5 0 1 0 -10 0zM471.33 1025 a5 5 0 1 0 10 0 a5 5 0 1 0 -10 0zM471.33 1075 a5 5 0 1 0 10 0 a5 5 0 1 0 -10 0zM514.63 1100 a5 5 0 1 0 10 0 a5 5 0 1 0 -10 0zM514.63 1150 a5 5 0 1 0 10 0 a5 5 0 1 0 -10 0zM471.33 1175 a5 5 0 1 0 10 0 a5 5 0 1 0 -10 0zM471.33 1225 a5 5 0 1 0 10 0 a5 5 0 1 0 -10 0zM514.63 1250 a5 5 0 1 0 10 0 a5 5 0 1 0 -10 0zM514.63 1300 a5 5 0 1 0 10 0 a5 5 0 1 0 -10 0zM471.33 1325 a5 5 0 1 0 10 0 a5 5 0 1 0 -10 0zM471.33 1375 a5 5 0 1 0 10 0 a5 5 0 1 0 -10 0zM514.63 1400 a5 5 0 1 0 10 0 a5 5 0 1 0 -10 0zM514.63 1450 a5 5 0 1 0 10 0 a5 5 0 1 0 -10 0zM471.33 1475 a5 5 0 1 0 10 0 a5 5 0 1 0 -10 0zM471.33 1525 a5 5 0 1 0 10 0 a5 5 0 1 0 -10 0zM428.03 1550 a5 5 0 1 0 10 0 a5 5 0 1 0 -10 0zM514.63 -50 a5 5 0 1 0 10 0 a5 5 0 1 0 -10 0zM557.93 -25 a5 5 0 1 0 10 0 a5 5 0 1 0 -10 0zM557.93 25 a5 5 0 1 0 10 0 a5 5 0 1 0 -10 0zM601.24 50 a5 5 0 1 0 10 0 a5 5 0 1 0 -10 0zM601.24 100 a5 5 0 1 0 10 0 a5 5 0 1 0 -10 0zM557.93 125 a5 5 0 1 0 10 0 a5 5 0 1 0 -10 0zM557.93 175 a5 5 0 1 0 10 0 a5 5 0 1 0 -10 0zM601.24 200 a5 5 0 1 0 10 0 a5 5 0 1 0 -10 0zM601.24 250 a5 5 0 1 0 10 0 a5 5 0 1 0 -10 0zM557.93 275 a5 5 0 1 0 10 0 a5 5 0 1 0 -10 0zM557.93 325 a5 5 0 1 0 10 0 a5 5 0 1 0 -10 0zM601.24 350 a5 5 0 1 0 10 0 a5 5 0 1 0 -10 0zM601.24 400 a5 5 0 1 0 10 0 a5 5 0 1 0 -10 0zM557.93 425 a5 5 0 1 0 10 0 a5 5 0 1 0 -10 0zM557.93 475 a5 5 0 1 0 10 0 a5 5 0 1 0 -10 0zM601.24 500 a5 5 0 1 0 10 0 a5 5 0 1 0 -10 0zM601.24 550 a5 5 0 1 0 10 0 a5 5 0 1 0 -10 0zM557.93 575 a5 5 0 1 0 10 0 a5 5 0 1 0 -10 0zM557.93 625 a5 5 0 1 0 10 0 a5 5 0 1 0 -10 0zM601.24 650 a5 5 0 1 0 10 0 a5 5 0 1 0 -10 0zM601.24 700 a5 5 0 1 0 10 0 a5 5 0 1 0 -10 0zM557.93 725 a5 5 0 1 0 10 0 a5 5 0 1 0 -10 0zM557.93 775 a5 5 0 1 0 10 0 a5 5 0 1 0 -10 0zM601.24 800 a5 5 0 1 0 10 0 a5 5 0 1 0 -10 0zM601.24 850 a5 5 0 1 0 10 0 a5 5 0 1 0 -10 0zM557.93 875 a5 5 0 1 0 10 0 a5 5 0 1 0 -10 0zM557.93 925 a5 5 0 1 0 10 0 a5 5 0 1 0 -10 0zM601.24 950 a5 5 0 1 0 10 0 a5 5 0 1 0 -10 0zM601.24 1000 a5 5 0 1 0 10 0 a5 5 0 1 0 -10 0zM557.93 1025 a5 5 0 1 0 10 0 a5 5 0 1 0 -10 0zM557.93 1075 a5 5 0 1 0 10 0 a5 5 0 1 0 -10 0zM601.24 1100 a5 5 0 1 0 10 0 a5 5 0 1 0 -10 0zM601.24 1150 a5 5 0 1 0 10 0 a5 5 0 1 0 -10 0zM557.93 1175 a5 5 0 1 0 10 0 a5 5 0 1 0 -10 0zM557.93 1225 a5 5 0 1 0 10 0 a5 5 0 1 0 -10 0zM601.24 1250 a5 5 0 1 0 10 0 a5 5 0 1 0 -10 0zM601.24 1300 a5 5 0 1 0 10 0 a5 5 0 1 0 -10 0zM557.93 1325 a5 5 0 1 0 10 0 a5 5 0 1 0 -10 0zM557.93 1375 a5 5 0 1 0 10 0 a5 5 0 1 0 -10 0zM601.24 1400 a5 5 0 1 0 10 0 a5 5 0 1 0 -10 0zM601.24 1450 a5 5 0 1 0 10 0 a5 5 0 1 0 -10 0zM557.93 1475 a5 5 0 1 0 10 0 a5 5 0 1 0 -10 0zM557.93 1525 a5 5 0 1 0 10 0 a5 5 0 1 0 -10 0zM514.63 1550 a5 5 0 1 0 10 0 a5 5 0 1 0 -10 0zM601.24 -50 a5 5 0 1 0 10 0 a5 5 0 1 0 -10 0zM644.54 -25 a5 5 0 1 0 10 0 a5 5 0 1 0 -10 0zM644.54 25 a5 5 0 1 0 10 0 a5 5 0 1 0 -10 0zM687.84 50 a5 5 0 1 0 10 0 a5 5 0 1 0 -10 0zM687.84 100 a5 5 0 1 0 10 0 a5 5 0 1 0 -10 0zM644.54 125 a5 5 0 1 0 10 0 a5 5 0 1 0 -10 0zM644.54 175 a5 5 0 1 0 10 0 a5 5 0 1 0 -10 0zM687.84 200 a5 5 0 1 0 10 0 a5 5 0 1 0 -10 0zM687.84 250 a5 5 0 1 0 10 0 a5 5 0 1 0 -10 0zM644.54 275 a5 5 0 1 0 10 0 a5 5 0 1 0 -10 0zM644.54 325 a5 5 0 1 0 10 0 a5 5 0 1 0 -10 0zM687.84 350 a5 5 0 1 0 10 0 a5 5 0 1 0 -10 0zM687.84 400 a5 5 0 1 0 10 0 a5 5 0 1 0 -10 0zM644.54 425 a5 5 0 1 0 10 0 a5 5 0 1 0 -10 0zM644.54 475 a5 5 0 1 0 10 0 a5 5 0 1 0 -10 0zM687.84 500 a5 5 0 1 0 10 0 a5 5 0 1 0 -10 0zM687.84 550 a5 5 0 1 0 10 0 a5 5 0 1 0 -10 0zM644.54 575 a5 5 0 1 0 10 0 a5 5 0 1 0 -10 0zM644.54 625 a5 5 0 1 0 10 0 a5 5 0 1 0 -10 0zM687.84 650 a5 5 0 1 0 10 0 a5 5 0 1 0 -10 0zM687.84 700 a5 5 0 1 0 10 0 a5 5 0 1 0 -10 0zM644.54 725 a5 5 0 1 0 10 0 a5 5 0 1 0 -10 0zM644.54 775 a5 5 0 1 0 10 0 a5 5 0 1 0 -10 0zM687.84 800 a5 5 0 1 0 10 0 a5 5 0 1 0 -10 0zM687.84 850 a5 5 0 1 0 10 0 a5 5 0 1 0 -10 0zM644.54 875 a5 5 0 1 0 10 0 a5 5 0 1 0 -10 0zM644.54 925 a5 5 0 1 0 10 0 a5 5 0 1 0 -10 0zM687.84 950 a5 5 0 1 0 10 0 a5 5 0 1 0 -10 0zM687.84 1000 a5 5 0 1 0 10 0 a5 5 0 1 0 -10 0zM644.54 1025 a5 5 0 1 0 10 0 a5 5 0 1 0 -10 0zM644.54 1075 a5 5 0 1 0 10 0 a5 5 0 1 0 -10 0zM687.84 1100 a5 5 0 1 0 10 0 a5 5 0 1 0 -10 0zM687.84 1150 a5 5 0 1 0 10 0 a5 5 0 1 0 -10 0zM644.54 1175 a5 5 0 1 0 10 0 a5 5 0 1 0 -10 0zM644.54 1225 a5 5 0 1 0 10 0 a5 5 0 1 0 -10 0zM687.84 1250 a5 5 0 1 0 10 0 a5 5 0 1 0 -10 0zM687.84 1300 a5 5 0 1 0 10 0 a5 5 0 1 0 -10 0zM644.54 1325 a5 5 0 1 0 10 0 a5 5 0 1 0 -10 0zM644.54 1375 a5 5 0 1 0 10 0 a5 5 0 1 0 -10 0zM687.84 1400 a5 5 0 1 0 10 0 a5 5 0 1 0 -10 0zM687.84 1450 a5 5 0 1 0 10 0 a5 5 0 1 0 -10 0zM644.54 1475 a5 5 0 1 0 10 0 a5 5 0 1 0 -10 0zM644.54 1525 a5 5 0 1 0 10 0 a5 5 0 1 0 -10 0zM601.24 1550 a5 5 0 1 0 10 0 a5 5 0 1 0 -10 0zM687.84 -50 a5 5 0 1 0 10 0 a5 5 0 1 0 -10 0zM731.14 -25 a5 5 0 1 0 10 0 a5 5 0 1 0 -10 0zM731.14 25 a5 5 0 1 0 10 0 a5 5 0 1 0 -10 0zM774.45 50 a5 5 0 1 0 10 0 a5 5 0 1 0 -10 0zM774.45 100 a5 5 0 1 0 10 0 a5 5 0 1 0 -10 0zM731.14 125 a5 5 0 1 0 10 0 a5 5 0 1 0 -10 0zM731.14 175 a5 5 0 1 0 10 0 a5 5 0 1 0 -10 0zM774.45 200 a5 5 0 1 0 10 0 a5 5 0 1 0 -10 0zM774.45 250 a5 5 0 1 0 10 0 a5 5 0 1 0 -10 0zM731.14 275 a5 5 0 1 0 10 0 a5 5 0 1 0 -10 0zM731.14 325 a5 5 0 1 0 10 0 a5 5 0 1 0 -10 0zM774.45 350 a5 5 0 1 0 10 0 a5 5 0 1 0 -10 0zM774.45 400 a5 5 0 1 0 10 0 a5 5 0 1 0 -10 0zM731.14 425 a5 5 0 1 0 10 0 a5 5 0 1 0 -10 0zM731.14 475 a5 5 0 1 0 10 0 a5 5 0 1 0 -10 0zM774.45 500 a5 5 0 1 0 10 0 a5 5 0 1 0 -10 0zM774.45 550 a5 5 0 1 0 10 0 a5 5 0 1 0 -10 0zM731.14 575 a5 5 0 1 0 10 0 a5 5 0 1 0 -10 0zM731.14 625 a5 5 0 1 0 10 0 a5 5 0 1 0 -10 0zM774.45 650 a5 5 0 1 0 10 0 a5 5 0 1 0 -10 0zM774.45 700 a5 5 0 1 0 10 0 a5 5 0 1 0 -10 0zM731.14 725 a5 5 0 1 0 10 0 a5 5 0 1 0 -10 0zM731.14 775 a5 5 0 1 0 10 0 a5 5 0 1 0 -10 0zM774.45 800 a5 5 0 1 0 10 0 a5 5 0 1 0 -10 0zM774.45 850 a5 5 0 1 0 10 0 a5 5 0 1 0 -10 0zM731.14 875 a5 5 0 1 0 10 0 a5 5 0 1 0 -10 0zM731.14 925 a5 5 0 1 0 10 0 a5 5 0 1 0 -10 0zM774.45 950 a5 5 0 1 0 10 0 a5 5 0 1 0 -10 0zM774.45 1000 a5 5 0 1 0 10 0 a5 5 0 1 0 -10 0zM731.14 1025 a5 5 0 1 0 10 0 a5 5 0 1 0 -10 0zM731.14 1075 a5 5 0 1 0 10 0 a5 5 0 1 0 -10 0zM774.45 1100 a5 5 0 1 0 10 0 a5 5 0 1 0 -10 0zM774.45 1150 a5 5 0 1 0 10 0 a5 5 0 1 0 -10 0zM731.14 1175 a5 5 0 1 0 10 0 a5 5 0 1 0 -10 0zM731.14 1225 a5 5 0 1 0 10 0 a5 5 0 1 0 -10 0zM774.45 1250 a5 5 0 1 0 10 0 a5 5 0 1 0 -10 0zM774.45 1300 a5 5 0 1 0 10 0 a5 5 0 1 0 -10 0zM731.14 1325 a5 5 0 1 0 10 0 a5 5 0 1 0 -10 0zM731.14 1375 a5 5 0 1 0 10 0 a5 5 0 1 0 -10 0zM774.45 1400 a5 5 0 1 0 10 0 a5 5 0 1 0 -10 0zM774.45 1450 a5 5 0 1 0 10 0 a5 5 0 1 0 -10 0zM731.14 1475 a5 5 0 1 0 10 0 a5 5 0 1 0 -10 0zM731.14 1525 a5 5 0 1 0 10 0 a5 5 0 1 0 -10 0zM687.84 1550 a5 5 0 1 0 10 0 a5 5 0 1 0 -10 0zM774.45 -50 a5 5 0 1 0 10 0 a5 5 0 1 0 -10 0zM817.75 -25 a5 5 0 1 0 10 0 a5 5 0 1 0 -10 0zM817.75 25 a5 5 0 1 0 10 0 a5 5 0 1 0 -10 0zM861.05 50 a5 5 0 1 0 10 0 a5 5 0 1 0 -10 0zM861.05 100 a5 5 0 1 0 10 0 a5 5 0 1 0 -10 0zM817.75 125 a5 5 0 1 0 10 0 a5 5 0 1 0 -10 0zM817.75 175 a5 5 0 1 0 10 0 a5 5 0 1 0 -10 0zM861.05 200 a5 5 0 1 0 10 0 a5 5 0 1 0 -10 0zM861.05 250 a5 5 0 1 0 10 0 a5 5 0 1 0 -10 0zM817.75 275 a5 5 0 1 0 10 0 a5 5 0 1 0 -10 0zM817.75 325 a5 5 0 1 0 10 0 a5 5 0 1 0 -10 0zM861.05 350 a5 5 0 1 0 10 0 a5 5 0 1 0 -10 0zM861.05 400 a5 5 0 1 0 10 0 a5 5 0 1 0 -10 0zM817.75 425 a5 5 0 1 0 10 0 a5 5 0 1 0 -10 0zM817.75 475 a5 5 0 1 0 10 0 a5 5 0 1 0 -10 0zM861.05 500 a5 5 0 1 0 10 0 a5 5 0 1 0 -10 0zM861.05 550 a5 5 0 1 0 10 0 a5 5 0 1 0 -10 0zM817.75 575 a5 5 0 1 0 10 0 a5 5 0 1 0 -10 0zM817.75 625 a5 5 0 1 0 10 0 a5 5 0 1 0 -10 0zM861.05 650 a5 5 0 1 0 10 0 a5 5 0 1 0 -10 0zM861.05 700 a5 5 0 1 0 10 0 a5 5 0 1 0 -10 0zM817.75 725 a5 5 0 1 0 10 0 a5 5 0 1 0 -10 0zM817.75 775 a5 5 0 1 0 10 0 a5 5 0 1 0 -10 0zM861.05 800 a5 5 0 1 0 10 0 a5 5 0 1 0 -10 0zM861.05 850 a5 5 0 1 0 10 0 a5 5 0 1 0 -10 0zM817.75 875 a5 5 0 1 0 10 0 a5 5 0 1 0 -10 0zM817.75 925 a5 5 0 1 0 10 0 a5 5 0 1 0 -10 0zM861.05 950 a5 5 0 1 0 10 0 a5 5 0 1 0 -10 0zM861.05 1000 a5 5 0 1 0 10 0 a5 5 0 1 0 -10 0zM817.75 1025 a5 5 0 1 0 10 0 a5 5 0 1 0 -10 0zM817.75 1075 a5 5 0 1 0 10 0 a5 5 0 1 0 -10 0zM861.05 1100 a5 5 0 1 0 10 0 a5 5 0 1 0 -10 0zM861.05 1150 a5 5 0 1 0 10 0 a5 5 0 1 0 -10 0zM817.75 1175 a5 5 0 1 0 10 0 a5 5 0 1 0 -10 0zM817.75 1225 a5 5 0 1 0 10 0 a5 5 0 1 0 -10 0zM861.05 1250 a5 5 0 1 0 10 0 a5 5 0 1 0 -10 0zM861.05 1300 a5 5 0 1 0 10 0 a5 5 0 1 0 -10 0zM817.75 1325 a5 5 0 1 0 10 0 a5 5 0 1 0 -10 0zM817.75 1375 a5 5 0 1 0 10 0 a5 5 0 1 0 -10 0zM861.05 1400 a5 5 0 1 0 10 0 a5 5 0 1 0 -10 0zM861.05 1450 a5 5 0 1 0 10 0 a5 5 0 1 0 -10 0zM817.75 1475 a5 5 0 1 0 10 0 a5 5 0 1 0 -10 0zM817.75 1525 a5 5 0 1 0 10 0 a5 5 0 1 0 -10 0zM774.45 1550 a5 5 0 1 0 10 0 a5 5 0 1 0 -10 0zM861.05 -50 a5 5 0 1 0 10 0 a5 5 0 1 0 -10 0zM904.35 -25 a5 5 0 1 0 10 0 a5 5 0 1 0 -10 0zM904.35 25 a5 5 0 1 0 10 0 a5 5 0 1 0 -10 0zM947.66 50 a5 5 0 1 0 10 0 a5 5 0 1 0 -10 0zM947.66 100 a5 5 0 1 0 10 0 a5 5 0 1 0 -10 0zM904.35 125 a5 5 0 1 0 10 0 a5 5 0 1 0 -10 0zM904.35 175 a5 5 0 1 0 10 0 a5 5 0 1 0 -10 0zM947.66 200 a5 5 0 1 0 10 0 a5 5 0 1 0 -10 0zM947.66 250 a5 5 0 1 0 10 0 a5 5 0 1 0 -10 0zM904.35 275 a5 5 0 1 0 10 0 a5 5 0 1 0 -10 0zM904.35 325 a5 5 0 1 0 10 0 a5 5 0 1 0 -10 0zM947.66 350 a5 5 0 1 0 10 0 a5 5 0 1 0 -10 0zM947.66 400 a5 5 0 1 0 10 0 a5 5 0 1 0 -10 0zM904.35 425 a5 5 0 1 0 10 0 a5 5 0 1 0 -10 0zM904.35 475 a5 5 0 1 0 10 0 a5 5 0 1 0 -10 0zM947.66 500 a5 5 0 1 0 10 0 a5 5 0 1 0 -10 0zM947.66 550 a5 5 0 1 0 10 0 a5 5 0 1 0 -10 0zM904.35 575 a5 5 0 1 0 10 0 a5 5 0 1 0 -10 0zM904.35 625 a5 5 0 1 0 10 0 a5 5 0 1 0 -10 0zM947.66 650 a5 5 0 1 0 10 0 a5 5 0 1 0 -10 0zM947.66 700 a5 5 0 1 0 10 0 a5 5 0 1 0 -10 0zM904.35 725 a5 5 0 1 0 10 0 a5 5 0 1 0 -10 0zM904.35 775 a5 5 0 1 0 10 0 a5 5 0 1 0 -10 0zM947.66 800 a5 5 0 1 0 10 0 a5 5 0 1 0 -10 0zM947.66 850 a5 5 0 1 0 10 0 a5 5 0 1 0 -10 0zM904.35 875 a5 5 0 1 0 10 0 a5 5 0 1 0 -10 0zM904.35 925 a5 5 0 1 0 10 0 a5 5 0 1 0 -10 0zM947.66 950 a5 5 0 1 0 10 0 a5 5 0 1 0 -10 0zM947.66 1000 a5 5 0 1 0 10 0 a5 5 0 1 0 -10 0zM904.35 1025 a5 5 0 1 0 10 0 a5 5 0 1 0 -10 0zM904.35 1075 a5 5 0 1 0 10 0 a5 5 0 1 0 -10 0zM947.66 1100 a5 5 0 1 0 10 0 a5 5 0 1 0 -10 0zM947.66 1150 a5 5 0 1 0 10 0 a5 5 0 1 0 -10 0zM904.35 1175 a5 5 0 1 0 10 0 a5 5 0 1 0 -10 0zM904.35 1225 a5 5 0 1 0 10 0 a5 5 0 1 0 -10 0zM947.66 1250 a5 5 0 1 0 10 0 a5 5 0 1 0 -10 0zM947.66 1300 a5 5 0 1 0 10 0 a5 5 0 1 0 -10 0zM904.35 1325 a5 5 0 1 0 10 0 a5 5 0 1 0 -10 0zM904.35 1375 a5 5 0 1 0 10 0 a5 5 0 1 0 -10 0zM947.66 1400 a5 5 0 1 0 10 0 a5 5 0 1 0 -10 0zM947.66 1450 a5 5 0 1 0 10 0 a5 5 0 1 0 -10 0zM904.35 1475 a5 5 0 1 0 10 0 a5 5 0 1 0 -10 0zM904.35 1525 a5 5 0 1 0 10 0 a5 5 0 1 0 -10 0zM861.05 1550 a5 5 0 1 0 10 0 a5 5 0 1 0 -10 0zM947.66 -50 a5 5 0 1 0 10 0 a5 5 0 1 0 -10 0zM990.96 -25 a5 5 0 1 0 10 0 a5 5 0 1 0 -10 0zM990.96 25 a5 5 0 1 0 10 0 a5 5 0 1 0 -10 0zM1034.26 50 a5 5 0 1 0 10 0 a5 5 0 1 0 -10 0zM1034.26 100 a5 5 0 1 0 10 0 a5 5 0 1 0 -10 0zM990.96 125 a5 5 0 1 0 10 0 a5 5 0 1 0 -10 0zM990.96 175 a5 5 0 1 0 10 0 a5 5 0 1 0 -10 0zM1034.26 200 a5 5 0 1 0 10 0 a5 5 0 1 0 -10 0zM1034.26 250 a5 5 0 1 0 10 0 a5 5 0 1 0 -10 0zM990.96 275 a5 5 0 1 0 10 0 a5 5 0 1 0 -10 0zM990.96 325 a5 5 0 1 0 10 0 a5 5 0 1 0 -10 0zM1034.26 350 a5 5 0 1 0 10 0 a5 5 0 1 0 -10 0zM1034.26 400 a5 5 0 1 0 10 0 a5 5 0 1 0 -10 0zM990.96 425 a5 5 0 1 0 10 0 a5 5 0 1 0 -10 0zM990.96 475 a5 5 0 1 0 10 0 a5 5 0 1 0 -10 0zM1034.26 500 a5 5 0 1 0 10 0 a5 5 0 1 0 -10 0zM1034.26 550 a5 5 0 1 0 10 0 a5 5 0 1 0 -10 0zM990.96 575 a5 5 0 1 0 10 0 a5 5 0 1 0 -10 0zM990.96 625 a5 5 0 1 0 10 0 a5 5 0 1 0 -10 0zM1034.26 650 a5 5 0 1 0 10 0 a5 5 0 1 0 -10 0zM1034.26 700 a5 5 0 1 0 10 0 a5 5 0 1 0 -10 0zM990.96 725 a5 5 0 1 0 10 0 a5 5 0 1 0 -10 0zM990.96 775 a5 5 0 1 0 10 0 a5 5 0 1 0 -10 0zM1034.26 800 a5 5 0 1 0 10 0 a5 5 0 1 0 -10 0zM1034.26 850 a5 5 0 1 0 10 0 a5 5 0 1 0 -10 0zM990.96 875 a5 5 0 1 0 10 0 a5 5 0 1 0 -10 0zM990.96 925 a5 5 0 1 0 10 0 a5 5 0 1 0 -10 0zM1034.26 950 a5 5 0 1 0 10 0 a5 5 0 1 0 -10 0zM1034.26 1000 a5 5 0 1 0 10 0 a5 5 0 1 0 -10 0zM990.96 1025 a5 5 0 1 0 10 0 a5 5 0 1 0 -10 0zM990.96 1075 a5 5 0 1 0 10 0 a5 5 0 1 0 -10 0zM1034.26 1100 a5 5 0 1 0 10 0 a5 5 0 1 0 -10 0zM1034.26 1150 a5 5 0 1 0 10 0 a5 5 0 1 0 -10 0zM990.96 1175 a5 5 0 1 0 10 0 a5 5 0 1 0 -10 0zM990.96 1225 a5 5 0 1 0 10 0 a5 5 0 1 0 -10 0zM1034.26 1250 a5 5 0 1 0 10 0 a5 5 0 1 0 -10 0zM1034.26 1300 a5 5 0 1 0 10 0 a5 5 0 1 0 -10 0zM990.96 1325 a5 5 0 1 0 10 0 a5 5 0 1 0 -10 0zM990.96 1375 a5 5 0 1 0 10 0 a5 5 0 1 0 -10 0zM1034.26 1400 a5 5 0 1 0 10 0 a5 5 0 1 0 -10 0zM1034.26 1450 a5 5 0 1 0 10 0 a5 5 0 1 0 -10 0zM990.96 1475 a5 5 0 1 0 10 0 a5 5 0 1 0 -10 0zM990.96 1525 a5 5 0 1 0 10 0 a5 5 0 1 0 -10 0zM947.66 1550 a5 5 0 1 0 10 0 a5 5 0 1 0 -10 0zM1034.26 -50 a5 5 0 1 0 10 0 a5 5 0 1 0 -10 0zM1077.56 -25 a5 5 0 1 0 10 0 a5 5 0 1 0 -10 0zM1077.56 25 a5 5 0 1 0 10 0 a5 5 0 1 0 -10 0zM1120.87 50 a5 5 0 1 0 10 0 a5 5 0 1 0 -10 0zM1120.87 100 a5 5 0 1 0 10 0 a5 5 0 1 0 -10 0zM1077.56 125 a5 5 0 1 0 10 0 a5 5 0 1 0 -10 0zM1077.56 175 a5 5 0 1 0 10 0 a5 5 0 1 0 -10 0zM1120.87 200 a5 5 0 1 0 10 0 a5 5 0 1 0 -10 0zM1120.87 250 a5 5 0 1 0 10 0 a5 5 0 1 0 -10 0zM1077.56 275 a5 5 0 1 0 10 0 a5 5 0 1 0 -10 0zM1077.56 325 a5 5 0 1 0 10 0 a5 5 0 1 0 -10 0zM1120.87 350 a5 5 0 1 0 10 0 a5 5 0 1 0 -10 0zM1120.87 400 a5 5 0 1 0 10 0 a5 5 0 1 0 -10 0zM1077.56 425 a5 5 0 1 0 10 0 a5 5 0 1 0 -10 0zM1077.56 475 a5 5 0 1 0 10 0 a5 5 0 1 0 -10 0zM1120.87 500 a5 5 0 1 0 10 0 a5 5 0 1 0 -10 0zM1120.87 550 a5 5 0 1 0 10 0 a5 5 0 1 0 -10 0zM1077.56 575 a5 5 0 1 0 10 0 a5 5 0 1 0 -10 0zM1077.56 625 a5 5 0 1 0 10 0 a5 5 0 1 0 -10 0zM1120.87 650 a5 5 0 1 0 10 0 a5 5 0 1 0 -10 0zM1120.87 700 a5 5 0 1 0 10 0 a5 5 0 1 0 -10 0zM1077.56 725 a5 5 0 1 0 10 0 a5 5 0 1 0 -10 0zM1077.56 775 a5 5 0 1 0 10 0 a5 5 0 1 0 -10 0zM1120.87 800 a5 5 0 1 0 10 0 a5 5 0 1 0 -10 0zM1120.87 850 a5 5 0 1 0 10 0 a5 5 0 1 0 -10 0zM1077.56 875 a5 5 0 1 0 10 0 a5 5 0 1 0 -10 0zM1077.56 925 a5 5 0 1 0 10 0 a5 5 0 1 0 -10 0zM1120.87 950 a5 5 0 1 0 10 0 a5 5 0 1 0 -10 0zM1120.87 1000 a5 5 0 1 0 10 0 a5 5 0 1 0 -10 0zM1077.56 1025 a5 5 0 1 0 10 0 a5 5 0 1 0 -10 0zM1077.56 1075 a5 5 0 1 0 10 0 a5 5 0 1 0 -10 0zM1120.87 1100 a5 5 0 1 0 10 0 a5 5 0 1 0 -10 0zM1120.87 1150 a5 5 0 1 0 10 0 a5 5 0 1 0 -10 0zM1077.56 1175 a5 5 0 1 0 10 0 a5 5 0 1 0 -10 0zM1077.56 1225 a5 5 0 1 0 10 0 a5 5 0 1 0 -10 0zM1120.87 1250 a5 5 0 1 0 10 0 a5 5 0 1 0 -10 0zM1120.87 1300 a5 5 0 1 0 10 0 a5 5 0 1 0 -10 0zM1077.56 1325 a5 5 0 1 0 10 0 a5 5 0 1 0 -10 0zM1077.56 1375 a5 5 0 1 0 10 0 a5 5 0 1 0 -10 0zM1120.87 1400 a5 5 0 1 0 10 0 a5 5 0 1 0 -10 0zM1120.87 1450 a5 5 0 1 0 10 0 a5 5 0 1 0 -10 0zM1077.56 1475 a5 5 0 1 0 10 0 a5 5 0 1 0 -10 0zM1077.56 1525 a5 5 0 1 0 10 0 a5 5 0 1 0 -10 0zM1034.26 1550 a5 5 0 1 0 10 0 a5 5 0 1 0 -10 0zM1120.87 -50 a5 5 0 1 0 10 0 a5 5 0 1 0 -10 0zM1164.17 -25 a5 5 0 1 0 10 0 a5 5 0 1 0 -10 0zM1164.17 25 a5 5 0 1 0 10 0 a5 5 0 1 0 -10 0zM1207.47 50 a5 5 0 1 0 10 0 a5 5 0 1 0 -10 0zM1207.47 100 a5 5 0 1 0 10 0 a5 5 0 1 0 -10 0zM1164.17 125 a5 5 0 1 0 10 0 a5 5 0 1 0 -10 0zM1164.17 175 a5 5 0 1 0 10 0 a5 5 0 1 0 -10 0zM1207.47 200 a5 5 0 1 0 10 0 a5 5 0 1 0 -10 0zM1207.47 250 a5 5 0 1 0 10 0 a5 5 0 1 0 -10 0zM1164.17 275 a5 5 0 1 0 10 0 a5 5 0 1 0 -10 0zM1164.17 325 a5 5 0 1 0 10 0 a5 5 0 1 0 -10 0zM1207.47 350 a5 5 0 1 0 10 0 a5 5 0 1 0 -10 0zM1207.47 400 a5 5 0 1 0 10 0 a5 5 0 1 0 -10 0zM1164.17 425 a5 5 0 1 0 10 0 a5 5 0 1 0 -10 0zM1164.17 475 a5 5 0 1 0 10 0 a5 5 0 1 0 -10 0zM1207.47 500 a5 5 0 1 0 10 0 a5 5 0 1 0 -10 0zM1207.47 550 a5 5 0 1 0 10 0 a5 5 0 1 0 -10 0zM1164.17 575 a5 5 0 1 0 10 0 a5 5 0 1 0 -10 0zM1164.17 625 a5 5 0 1 0 10 0 a5 5 0 1 0 -10 0zM1207.47 650 a5 5 0 1 0 10 0 a5 5 0 1 0 -10 0zM1207.47 700 a5 5 0 1 0 10 0 a5 5 0 1 0 -10 0zM1164.17 725 a5 5 0 1 0 10 0 a5 5 0 1 0 -10 0zM1164.17 775 a5 5 0 1 0 10 0 a5 5 0 1 0 -10 0zM1207.47 800 a5 5 0 1 0 10 0 a5 5 0 1 0 -10 0zM1207.47 850 a5 5 0 1 0 10 0 a5 5 0 1 0 -10 0zM1164.17 875 a5 5 0 1 0 10 0 a5 5 0 1 0 -10 0zM1164.17 925 a5 5 0 1 0 10 0 a5 5 0 1 0 -10 0zM1207.47 950 a5 5 0 1 0 10 0 a5 5 0 1 0 -10 0zM1207.47 1000 a5 5 0 1 0 10 0 a5 5 0 1 0 -10 0zM1164.17 1025 a5 5 0 1 0 10 0 a5 5 0 1 0 -10 0zM1164.17 1075 a5 5 0 1 0 10 0 a5 5 0 1 0 -10 0zM1207.47 1100 a5 5 0 1 0 10 0 a5 5 0 1 0 -10 0zM1207.47 1150 a5 5 0 1 0 10 0 a5 5 0 1 0 -10 0zM1164.17 1175 a5 5 0 1 0 10 0 a5 5 0 1 0 -10 0zM1164.17 1225 a5 5 0 1 0 10 0 a5 5 0 1 0 -10 0zM1207.47 1250 a5 5 0 1 0 10 0 a5 5 0 1 0 -10 0zM1207.47 1300 a5 5 0 1 0 10 0 a5 5 0 1 0 -10 0zM1164.17 1325 a5 5 0 1 0 10 0 a5 5 0 1 0 -10 0zM1164.17 1375 a5 5 0 1 0 10 0 a5 5 0 1 0 -10 0zM1207.47 1400 a5 5 0 1 0 10 0 a5 5 0 1 0 -10 0zM1207.47 1450 a5 5 0 1 0 10 0 a5 5 0 1 0 -10 0zM1164.17 1475 a5 5 0 1 0 10 0 a5 5 0 1 0 -10 0zM1164.17 1525 a5 5 0 1 0 10 0 a5 5 0 1 0 -10 0zM1120.87 1550 a5 5 0 1 0 10 0 a5 5 0 1 0 -10 0zM1207.47 -50 a5 5 0 1 0 10 0 a5 5 0 1 0 -10 0zM1250.77 -25 a5 5 0 1 0 10 0 a5 5 0 1 0 -10 0zM1250.77 25 a5 5 0 1 0 10 0 a5 5 0 1 0 -10 0zM1294.08 50 a5 5 0 1 0 10 0 a5 5 0 1 0 -10 0zM1294.08 100 a5 5 0 1 0 10 0 a5 5 0 1 0 -10 0zM1250.77 125 a5 5 0 1 0 10 0 a5 5 0 1 0 -10 0zM1250.77 175 a5 5 0 1 0 10 0 a5 5 0 1 0 -10 0zM1294.08 200 a5 5 0 1 0 10 0 a5 5 0 1 0 -10 0zM1294.08 250 a5 5 0 1 0 10 0 a5 5 0 1 0 -10 0zM1250.77 275 a5 5 0 1 0 10 0 a5 5 0 1 0 -10 0zM1250.77 325 a5 5 0 1 0 10 0 a5 5 0 1 0 -10 0zM1294.08 350 a5 5 0 1 0 10 0 a5 5 0 1 0 -10 0zM1294.08 400 a5 5 0 1 0 10 0 a5 5 0 1 0 -10 0zM1250.77 425 a5 5 0 1 0 10 0 a5 5 0 1 0 -10 0zM1250.77 475 a5 5 0 1 0 10 0 a5 5 0 1 0 -10 0zM1294.08 500 a5 5 0 1 0 10 0 a5 5 0 1 0 -10 0zM1294.08 550 a5 5 0 1 0 10 0 a5 5 0 1 0 -10 0zM1250.77 575 a5 5 0 1 0 10 0 a5 5 0 1 0 -10 0zM1250.77 625 a5 5 0 1 0 10 0 a5 5 0 1 0 -10 0zM1294.08 650 a5 5 0 1 0 10 0 a5 5 0 1 0 -10 0zM1294.08 700 a5 5 0 1 0 10 0 a5 5 0 1 0 -10 0zM1250.77 725 a5 5 0 1 0 10 0 a5 5 0 1 0 -10 0zM1250.77 775 a5 5 0 1 0 10 0 a5 5 0 1 0 -10 0zM1294.08 800 a5 5 0 1 0 10 0 a5 5 0 1 0 -10 0zM1294.08 850 a5 5 0 1 0 10 0 a5 5 0 1 0 -10 0zM1250.77 875 a5 5 0 1 0 10 0 a5 5 0 1 0 -10 0zM1250.77 925 a5 5 0 1 0 10 0 a5 5 0 1 0 -10 0zM1294.08 950 a5 5 0 1 0 10 0 a5 5 0 1 0 -10 0zM1294.08 1000 a5 5 0 1 0 10 0 a5 5 0 1 0 -10 0zM1250.77 1025 a5 5 0 1 0 10 0 a5 5 0 1 0 -10 0zM1250.77 1075 a5 5 0 1 0 10 0 a5 5 0 1 0 -10 0zM1294.08 1100 a5 5 0 1 0 10 0 a5 5 0 1 0 -10 0zM1294.08 1150 a5 5 0 1 0 10 0 a5 5 0 1 0 -10 0zM1250.77 1175 a5 5 0 1 0 10 0 a5 5 0 1 0 -10 0zM1250.77 1225 a5 5 0 1 0 10 0 a5 5 0 1 0 -10 0zM1294.08 1250 a5 5 0 1 0 10 0 a5 5 0 1 0 -10 0zM1294.08 1300 a5 5 0 1 0 10 0 a5 5 0 1 0 -10 0zM1250.77 1325 a5 5 0 1 0 10 0 a5 5 0 1 0 -10 0zM1250.77 1375 a5 5 0 1 0 10 0 a5 5 0 1 0 -10 0zM1294.08 1400 a5 5 0 1 0 10 0 a5 5 0 1 0 -10 0zM1294.08 1450 a5 5 0 1 0 10 0 a5 5 0 1 0 -10 0zM1250.77 1475 a5 5 0 1 0 10 0 a5 5 0 1 0 -10 0zM1250.77 1525 a5 5 0 1 0 10 0 a5 5 0 1 0 -10 0zM1207.47 1550 a5 5 0 1 0 10 0 a5 5 0 1 0 -10 0zM1294.08 -50 a5 5 0 1 0 10 0 a5 5 0 1 0 -10 0zM1337.38 -25 a5 5 0 1 0 10 0 a5 5 0 1 0 -10 0zM1337.38 25 a5 5 0 1 0 10 0 a5 5 0 1 0 -10 0zM1380.68 50 a5 5 0 1 0 10 0 a5 5 0 1 0 -10 0zM1380.68 100 a5 5 0 1 0 10 0 a5 5 0 1 0 -10 0zM1337.38 125 a5 5 0 1 0 10 0 a5 5 0 1 0 -10 0zM1337.38 175 a5 5 0 1 0 10 0 a5 5 0 1 0 -10 0zM1380.68 200 a5 5 0 1 0 10 0 a5 5 0 1 0 -10 0zM1380.68 250 a5 5 0 1 0 10 0 a5 5 0 1 0 -10 0zM1337.38 275 a5 5 0 1 0 10 0 a5 5 0 1 0 -10 0zM1337.38 325 a5 5 0 1 0 10 0 a5 5 0 1 0 -10 0zM1380.68 350 a5 5 0 1 0 10 0 a5 5 0 1 0 -10 0zM1380.68 400 a5 5 0 1 0 10 0 a5 5 0 1 0 -10 0zM1337.38 425 a5 5 0 1 0 10 0 a5 5 0 1 0 -10 0zM1337.38 475 a5 5 0 1 0 10 0 a5 5 0 1 0 -10 0zM1380.68 500 a5 5 0 1 0 10 0 a5 5 0 1 0 -10 0zM1380.68 550 a5 5 0 1 0 10 0 a5 5 0 1 0 -10 0zM1337.38 575 a5 5 0 1 0 10 0 a5 5 0 1 0 -10 0zM1337.38 625 a5 5 0 1 0 10 0 a5 5 0 1 0 -10 0zM1380.68 650 a5 5 0 1 0 10 0 a5 5 0 1 0 -10 0zM1380.68 700 a5 5 0 1 0 10 0 a5 5 0 1 0 -10 0zM1337.38 725 a5 5 0 1 0 10 0 a5 5 0 1 0 -10 0zM1337.38 775 a5 5 0 1 0 10 0 a5 5 0 1 0 -10 0zM1380.68 800 a5 5 0 1 0 10 0 a5 5 0 1 0 -10 0zM1380.68 850 a5 5 0 1 0 10 0 a5 5 0 1 0 -10 0zM1337.38 875 a5 5 0 1 0 10 0 a5 5 0 1 0 -10 0zM1337.38 925 a5 5 0 1 0 10 0 a5 5 0 1 0 -10 0zM1380.68 950 a5 5 0 1 0 10 0 a5 5 0 1 0 -10 0zM1380.68 1000 a5 5 0 1 0 10 0 a5 5 0 1 0 -10 0zM1337.38 1025 a5 5 0 1 0 10 0 a5 5 0 1 0 -10 0zM1337.38 1075 a5 5 0 1 0 10 0 a5 5 0 1 0 -10 0zM1380.68 1100 a5 5 0 1 0 10 0 a5 5 0 1 0 -10 0zM1380.68 1150 a5 5 0 1 0 10 0 a5 5 0 1 0 -10 0zM1337.38 1175 a5 5 0 1 0 10 0 a5 5 0 1 0 -10 0zM1337.38 1225 a5 5 0 1 0 10 0 a5 5 0 1 0 -10 0zM1380.68 1250 a5 5 0 1 0 10 0 a5 5 0 1 0 -10 0zM1380.68 1300 a5 5 0 1 0 10 0 a5 5 0 1 0 -10 0zM1337.38 1325 a5 5 0 1 0 10 0 a5 5 0 1 0 -10 0zM1337.38 1375 a5 5 0 1 0 10 0 a5 5 0 1 0 -10 0zM1380.68 1400 a5 5 0 1 0 10 0 a5 5 0 1 0 -10 0zM1380.68 1450 a5 5 0 1 0 10 0 a5 5 0 1 0 -10 0zM1337.38 1475 a5 5 0 1 0 10 0 a5 5 0 1 0 -10 0zM1337.38 1525 a5 5 0 1 0 10 0 a5 5 0 1 0 -10 0zM1294.08 1550 a5 5 0 1 0 10 0 a5 5 0 1 0 -10 0zM1380.68 -50 a5 5 0 1 0 10 0 a5 5 0 1 0 -10 0zM1423.98 -25 a5 5 0 1 0 10 0 a5 5 0 1 0 -10 0zM1423.98 25 a5 5 0 1 0 10 0 a5 5 0 1 0 -10 0zM1467.29 50 a5 5 0 1 0 10 0 a5 5 0 1 0 -10 0zM1467.29 100 a5 5 0 1 0 10 0 a5 5 0 1 0 -10 0zM1423.98 125 a5 5 0 1 0 10 0 a5 5 0 1 0 -10 0zM1423.98 175 a5 5 0 1 0 10 0 a5 5 0 1 0 -10 0zM1467.29 200 a5 5 0 1 0 10 0 a5 5 0 1 0 -10 0zM1467.29 250 a5 5 0 1 0 10 0 a5 5 0 1 0 -10 0zM1423.98 275 a5 5 0 1 0 10 0 a5 5 0 1 0 -10 0zM1423.98 325 a5 5 0 1 0 10 0 a5 5 0 1 0 -10 0zM1467.29 350 a5 5 0 1 0 10 0 a5 5 0 1 0 -10 0zM1467.29 400 a5 5 0 1 0 10 0 a5 5 0 1 0 -10 0zM1423.98 425 a5 5 0 1 0 10 0 a5 5 0 1 0 -10 0zM1423.98 475 a5 5 0 1 0 10 0 a5 5 0 1 0 -10 0zM1467.29 500 a5 5 0 1 0 10 0 a5 5 0 1 0 -10 0zM1467.29 550 a5 5 0 1 0 10 0 a5 5 0 1 0 -10 0zM1423.98 575 a5 5 0 1 0 10 0 a5 5 0 1 0 -10 0zM1423.98 625 a5 5 0 1 0 10 0 a5 5 0 1 0 -10 0zM1467.29 650 a5 5 0 1 0 10 0 a5 5 0 1 0 -10 0zM1467.29 700 a5 5 0 1 0 10 0 a5 5 0 1 0 -10 0zM1423.98 725 a5 5 0 1 0 10 0 a5 5 0 1 0 -10 0zM1423.98 775 a5 5 0 1 0 10 0 a5 5 0 1 0 -10 0zM1467.29 800 a5 5 0 1 0 10 0 a5 5 0 1 0 -10 0zM1467.29 850 a5 5 0 1 0 10 0 a5 5 0 1 0 -10 0zM1423.98 875 a5 5 0 1 0 10 0 a5 5 0 1 0 -10 0zM1423.98 925 a5 5 0 1 0 10 0 a5 5 0 1 0 -10 0zM1467.29 950 a5 5 0 1 0 10 0 a5 5 0 1 0 -10 0zM1467.29 1000 a5 5 0 1 0 10 0 a5 5 0 1 0 -10 0zM1423.98 1025 a5 5 0 1 0 10 0 a5 5 0 1 0 -10 0zM1423.98 1075 a5 5 0 1 0 10 0 a5 5 0 1 0 -10 0zM1467.29 1100 a5 5 0 1 0 10 0 a5 5 0 1 0 -10 0zM1467.29 1150 a5 5 0 1 0 10 0 a5 5 0 1 0 -10 0zM1423.98 1175 a5 5 0 1 0 10 0 a5 5 0 1 0 -10 0zM1423.98 1225 a5 5 0 1 0 10 0 a5 5 0 1 0 -10 0zM1467.29 1250 a5 5 0 1 0 10 0 a5 5 0 1 0 -10 0zM1467.29 1300 a5 5 0 1 0 10 0 a5 5 0 1 0 -10 0zM1423.98 1325 a5 5 0 1 0 10 0 a5 5 0 1 0 -10 0zM1423.98 1375 a5 5 0 1 0 10 0 a5 5 0 1 0 -10 0zM1467.29 1400 a5 5 0 1 0 10 0 a5 5 0 1 0 -10 0zM1467.29 1450 a5 5 0 1 0 10 0 a5 5 0 1 0 -10 0zM1423.98 1475 a5 5 0 1 0 10 0 a5 5 0 1 0 -10 0zM1423.98 1525 a5 5 0 1 0 10 0 a5 5 0 1 0 -10 0zM1380.68 1550 a5 5 0 1 0 10 0 a5 5 0 1 0 -10 0zM1467.29 -50 a5 5 0 1 0 10 0 a5 5 0 1 0 -10 0zM1510.59 -25 a5 5 0 1 0 10 0 a5 5 0 1 0 -10 0zM1510.59 25 a5 5 0 1 0 10 0 a5 5 0 1 0 -10 0zM1553.89 50 a5 5 0 1 0 10 0 a5 5 0 1 0 -10 0zM1553.89 100 a5 5 0 1 0 10 0 a5 5 0 1 0 -10 0zM1510.59 125 a5 5 0 1 0 10 0 a5 5 0 1 0 -10 0zM1510.59 175 a5 5 0 1 0 10 0 a5 5 0 1 0 -10 0zM1553.89 200 a5 5 0 1 0 10 0 a5 5 0 1 0 -10 0zM1553.89 250 a5 5 0 1 0 10 0 a5 5 0 1 0 -10 0zM1510.59 275 a5 5 0 1 0 10 0 a5 5 0 1 0 -10 0zM1510.59 325 a5 5 0 1 0 10 0 a5 5 0 1 0 -10 0zM1553.89 350 a5 5 0 1 0 10 0 a5 5 0 1 0 -10 0zM1553.89 400 a5 5 0 1 0 10 0 a5 5 0 1 0 -10 0zM1510.59 425 a5 5 0 1 0 10 0 a5 5 0 1 0 -10 0zM1510.59 475 a5 5 0 1 0 10 0 a5 5 0 1 0 -10 0zM1553.89 500 a5 5 0 1 0 10 0 a5 5 0 1 0 -10 0zM1553.89 550 a5 5 0 1 0 10 0 a5 5 0 1 0 -10 0zM1510.59 575 a5 5 0 1 0 10 0 a5 5 0 1 0 -10 0zM1510.59 625 a5 5 0 1 0 10 0 a5 5 0 1 0 -10 0zM1553.89 650 a5 5 0 1 0 10 0 a5 5 0 1 0 -10 0zM1553.89 700 a5 5 0 1 0 10 0 a5 5 0 1 0 -10 0zM1510.59 725 a5 5 0 1 0 10 0 a5 5 0 1 0 -10 0zM1510.59 775 a5 5 0 1 0 10 0 a5 5 0 1 0 -10 0zM1553.89 800 a5 5 0 1 0 10 0 a5 5 0 1 0 -10 0zM1553.89 850 a5 5 0 1 0 10 0 a5 5 0 1 0 -10 0zM1510.59 875 a5 5 0 1 0 10 0 a5 5 0 1 0 -10 0zM1510.59 925 a5 5 0 1 0 10 0 a5 5 0 1 0 -10 0zM1553.89 950 a5 5 0 1 0 10 0 a5 5 0 1 0 -10 0zM1553.89 1000 a5 5 0 1 0 10 0 a5 5 0 1 0 -10 0zM1510.59 1025 a5 5 0 1 0 10 0 a5 5 0 1 0 -10 0zM1510.59 1075 a5 5 0 1 0 10 0 a5 5 0 1 0 -10 0zM1553.89 1100 a5 5 0 1 0 10 0 a5 5 0 1 0 -10 0zM1553.89 1150 a5 5 0 1 0 10 0 a5 5 0 1 0 -10 0zM1510.59 1175 a5 5 0 1 0 10 0 a5 5 0 1 0 -10 0zM1510.59 1225 a5 5 0 1 0 10 0 a5 5 0 1 0 -10 0zM1553.89 1250 a5 5 0 1 0 10 0 a5 5 0 1 0 -10 0zM1553.89 1300 a5 5 0 1 0 10 0 a5 5 0 1 0 -10 0zM1510.59 1325 a5 5 0 1 0 10 0 a5 5 0 1 0 -10 0zM1510.59 1375 a5 5 0 1 0 10 0 a5 5 0 1 0 -10 0zM1553.89 1400 a5 5 0 1 0 10 0 a5 5 0 1 0 -10 0zM1553.89 1450 a5 5 0 1 0 10 0 a5 5 0 1 0 -10 0zM1510.59 1475 a5 5 0 1 0 10 0 a5 5 0 1 0 -10 0zM1510.59 1525 a5 5 0 1 0 10 0 a5 5 0 1 0 -10 0zM1467.29 1550 a5 5 0 1 0 10 0 a5 5 0 1 0 -10 0z" fill="rgba(95, 50, 167, 1)"></path></g><defs><mask id="SvgjsMask1026"><rect width="1500" height="1500" fill="#ffffff"></rect></mask></defs></svg>